<?xml version="1.0" encoding="UTF-8"?>
<svg version="1.1" xmlns="http://www.w3.org/2000/svg" width="1024" height="1024">
<path d="M0 0 C0.70898438 0.61359375 1.41796875 1.2271875 2.1484375 1.859375 C18.19093359 16.69709865 24.88667057 37.95799663 25.92529297 59.24975586 C26.61180438 81.52350018 18.77934734 102.38755532 4 119 C3.39671875 119.68578125 2.7934375 120.3715625 2.171875 121.078125 C-6.79472225 130.64751871 -17.93463554 137.11996425 -30 142 C-30.89460938 142.37898437 -31.78921875 142.75796875 -32.7109375 143.1484375 C-50.80095413 150.04234068 -70.5471055 149.31208652 -89.57324219 148.88964844 C-109.56400661 148.52918751 -128.96263447 152.27932205 -144.359375 166.12109375 C-146.28957467 168.04072664 -148.15528223 169.99865525 -150 172 C-150.99726321 173.00272933 -151.99684821 174.00316175 -153 175 C-153.09498779 174.351521 -153.18997559 173.70304199 -153.2878418 173.03491211 C-156.75281986 149.80824907 -162.00723367 127.94848924 -178 110 C-178.60199219 109.25621094 -179.20398438 108.51242187 -179.82421875 107.74609375 C-195.2116759 89.19727224 -219.71821887 76.9054813 -243.515625 74.24609375 C-264.59073465 72.75760506 -285.34915394 75.93781766 -303.1796875 87.99609375 C-303.78039062 88.32738281 -304.38109375 88.65867187 -305 89 C-305.66 88.67 -306.32 88.34 -307 88 C-297.97697232 72.80850248 -286.87512859 59.26254382 -274.57666016 46.62353516 C-273.16686874 45.17182984 -271.77550001 43.70228626 -270.38671875 42.23046875 C-264.38676777 35.99484048 -257.86660926 30.66478827 -250.96435547 25.47705078 C-249.63332568 24.47621431 -248.30694643 23.46916832 -246.98486328 22.45654297 C-213.69287233 -2.98452425 -175.18516421 -18.83352462 -134 -26 C-133.28650391 -26.12455566 -132.57300781 -26.24911133 -131.83789062 -26.37744141 C-87.71085969 -33.84628441 -34.84501721 -30.85348273 0 0 Z " fill="#004E88" transform="translate(609,295)"/>
<path d="M0 0 C0.08636719 1.10214844 0.17273438 2.20429687 0.26171875 3.33984375 C2.76700327 31.6889501 14.26223656 55.85028761 36.1875 74.625 C57.84920141 91.74863547 85.77968939 100.06439622 113.25390625 97.72265625 C128.1528959 95.94291346 141.10265136 91.58555172 154 84 C154.75667969 83.66355469 155.51335937 83.32710937 156.29296875 82.98046875 C158.35327113 82.04875734 158.35327113 82.04875734 159 79 C159.33 79.99 159.66 80.98 160 82 C159.34 82.99 158.68 83.98 158 85 C157.34 85 156.68 85 156 85 C155.76410156 85.70898438 155.52820313 86.41796875 155.28515625 87.1484375 C153.77073664 90.50869985 151.84195299 92.83297477 149.4375 95.625 C148.5318964 96.68433565 147.62696261 97.74424423 146.72265625 98.8046875 C146.26648926 99.33674805 145.81032227 99.86880859 145.34033203 100.41699219 C143.30360472 102.82248215 141.34514454 105.28988908 139.375 107.75 C135.5191443 112.47785133 131.38908334 116.77149288 127 121 C124.54999861 123.43434643 122.11592191 125.88051735 119.7109375 128.359375 C113.81481971 134.39352899 107.63108058 139.79178287 101 145 C100.01386719 145.79148437 99.02773438 146.58296875 98.01171875 147.3984375 C68.73564881 170.51304316 35.72918972 185.78356845 -0.14672852 195.44677734 C-2.06879094 195.96244253 -2.06879094 195.96244253 -4 197 C-5.50219545 197.1923313 -7.01015097 197.34093385 -8.51953125 197.46484375 C-11.92337343 197.77561083 -15.26835569 198.17468848 -18.63671875 198.75390625 C-57.85603669 205.21910378 -103.92119464 203.7972718 -138.3359375 181.875 C-155.27574956 169.68181908 -167.3926785 154.20972124 -173 134 C-173.18256348 133.34443115 -173.36512695 132.6888623 -173.55322266 132.01342773 C-178.91900881 110.7820201 -174.78786695 88.50423891 -164.08203125 69.76416016 C-161.46500451 65.49732008 -158.29669486 61.74687378 -155 58 C-154.39285156 57.195625 -153.78570312 56.39125 -153.16015625 55.5625 C-150.61652715 52.54510273 -147.77973361 50.111482 -144.6875 47.6875 C-144.08518555 47.21401123 -143.48287109 46.74052246 -142.86230469 46.25268555 C-126.80634919 34 -126.80634919 34 -120 34 C-119.505 33.01 -119.505 33.01 -119 32 C-116.61950085 31.22467203 -114.30353588 30.58321312 -111.875 30 C-110.92560547 29.7525 -110.92560547 29.7525 -109.95703125 29.5 C-95.30847999 25.88725518 -81.00381474 25.79432581 -66.0456543 26.19189453 C-51.33582556 26.55552436 -37.68391863 25.28986374 -24.5 18.125 C-23.5097583 17.60836792 -23.5097583 17.60836792 -22.49951172 17.08129883 C-16.54237128 13.90401006 -10.80072763 10.70109144 -7 5 C-1.69014085 0 -1.69014085 0 0 0 Z " fill="#23D0EA" transform="translate(568,571)"/>
<path d="M0 0 C8.6958238 3.23813019 15.80497481 9.27584878 23 15 C24.11955078 15.85658203 24.11955078 15.85658203 25.26171875 16.73046875 C35.29809284 24.5107323 45.19499228 33.21913153 53.32421875 43.0078125 C55.50850644 45.60451814 57.82033108 48.07224281 60.125 50.5625 C62.92743411 53.62434 65.58073281 56.64483157 67.9375 60.0625 C69.84756862 63.15997749 69.84756862 63.15997749 73 65 C73 65.66 73 66.32 73 67 C74.44086629 69.24402141 75.91770889 71.43541405 77.4375 73.625 C96 100.91966207 96 100.91966207 96 109 C96.66 109.33 97.32 109.66 98 110 C99.85991339 114.05201596 101.25972702 118.30016478 102.75 122.5 C102.97309845 123.12747131 103.1961969 123.75494263 103.42605591 124.40142822 C121.33709674 175.08570891 127.48684416 240.37955611 103.6875 290.25 C100.36142878 296.64240586 96.49260388 302.37533126 92 308 C91.4121875 308.74121094 90.824375 309.48242188 90.21875 310.24609375 C86.30391802 314.95278947 82.08041397 318.60067365 77 322 C75.92685547 322.73863281 75.92685547 322.73863281 74.83203125 323.4921875 C55.46426632 336.01472898 32.36458041 338.71218779 10 334 C-3.32202312 330.3976162 -14.37346827 324.78192622 -25 316 C-25.81984375 315.37351562 -26.6396875 314.74703125 -27.484375 314.1015625 C-43.77965074 300.48842842 -52.56700014 278.27599824 -54.79785156 257.57958984 C-55.69837196 246.08816647 -55.39002437 234.46534354 -54.3125 223 C-52.93193594 205.11269168 -59.96028124 185.71213882 -71.44921875 172.09765625 C-73.03448478 170.3630716 -74.64188079 168.64827658 -76.27734375 166.9609375 C-78 165 -78 165 -78 163 C-78.99 162.67 -79.98 162.34 -81 162 C-81 161.34 -81 160.68 -81 160 C-79.824375 160.04125 -78.64875 160.0825 -77.4375 160.125 C-54.59148171 159.98221239 -33.99198882 151.13936994 -17 136 C-16.25363281 135.33613281 -15.50726562 134.67226563 -14.73828125 133.98828125 C5.89362137 114.50859658 17.16846915 87.16115353 19.28515625 59.23828125 C19.78760872 40.07955007 13.81613717 20.79208405 3 5 C2.15501953 4.15888672 2.15501953 4.15888672 1.29296875 3.30078125 C0 2 0 2 0 0 Z " fill="#2FE8F1" transform="translate(646,304)"/>
<path d="M0 0 C18.94805692 15.02931803 30.12778377 35.62853204 33.66113281 59.46337891 C34.32037396 65.27223979 34.31366074 71.03553767 34.25 76.875 C34.24500488 78.10516846 34.24000977 79.33533691 34.23486328 80.6027832 C34.18788382 86.83168216 33.99053293 92.9842029 33.4375 99.1875 C32.05999254 116.45625297 35.91244576 135.73272999 47.00390625 149.390625 C48.22566485 150.76294375 49.46940167 152.11627642 50.7421875 153.44140625 C52.0625 155 52.0625 155 52.0625 157 C52.64 157.268125 53.2175 157.53625 53.8125 157.8125 C56.0950868 159.01719859 58.0362942 160.40798115 60.0625 162 C55.97333753 162.90696529 51.91499794 163.33140724 47.75 163.75 C22.4628644 166.71034536 0.31958597 180.34049761 -15.49609375 200.14453125 C-32.11840212 221.83703756 -39.34366704 248.52654884 -35.99438477 275.63110352 C-33.94929348 289.98680962 -28.73139313 303.44231188 -19.9375 315 C-20.2675 315.66 -20.5975 316.32 -20.9375 317 C-23.55921575 315.09329764 -26.18066187 313.18623995 -28.80078125 311.27734375 C-30.7723357 309.8459412 -32.74828072 308.42054693 -34.73046875 307.00390625 C-40.46896492 302.8884191 -45.99523683 298.58790795 -51.4296875 294.078125 C-53.17398848 292.63269179 -54.95335074 291.22896648 -56.7578125 289.859375 C-57.83675781 288.93898438 -57.83675781 288.93898438 -58.9375 288 C-58.9375 287.34 -58.9375 286.68 -58.9375 286 C-59.52523193 285.74057617 -60.11296387 285.48115234 -60.71850586 285.21386719 C-63.09880215 283.9117621 -64.58154936 282.54479886 -66.44140625 280.578125 C-67.09439697 279.88920166 -67.7473877 279.20027832 -68.42016602 278.49047852 C-69.10651123 277.75112061 -69.79285645 277.0117627 -70.5 276.25 C-71.56528931 275.10905884 -71.56528931 275.10905884 -72.65209961 273.94506836 C-81.07634609 264.82205401 -88.63321955 255.17551441 -95.59765625 244.890625 C-96.93697773 242.8884753 -96.93697773 242.8884753 -98.9375 241 C-100.71364448 238.04801074 -102.28737378 234.98503002 -103.89941406 231.94091797 C-105.06900757 229.7541192 -106.26545796 227.58290698 -107.4609375 225.41015625 C-117.74535647 206.51331385 -131.55809483 181.12238038 -130.9375 159 C-131.5975 158.67 -132.2575 158.34 -132.9375 158 C-133.39776146 155.19029933 -133.73800199 152.45457849 -134 149.625 C-134.07798828 148.86316406 -134.15597656 148.10132813 -134.23632812 147.31640625 C-134.39854878 145.71028766 -134.55292084 144.1033628 -134.70068359 142.49584961 C-134.85273632 140.8933393 -135.02096039 139.29223494 -135.20947266 137.69360352 C-136.3056887 127.72988852 -136.18135643 117.69880587 -136.1875 107.6875 C-136.18817474 106.70201172 -136.18884949 105.71652344 -136.18954468 104.70117188 C-136.17418782 90.60156357 -135.91317017 76.83614053 -132.9375 63 C-132.68009033 61.73591309 -132.68009033 61.73591309 -132.41748047 60.44628906 C-127.00297559 34.42376248 -115.12666401 11.01271198 -92.3046875 -3.99609375 C-63.07819819 -21.38958449 -27.30532526 -20.87036241 0 0 Z " fill="#002A65" transform="translate(399.9375,414)"/>
<path d="M0 0 C1.18013672 -0.02255859 2.36027344 -0.04511719 3.57617188 -0.06835938 C9.61017979 0.0025495 13.56737292 0.39073931 18.21484375 4.43359375 C19.31868268 5.57360977 20.40162932 6.73538983 21.4375 7.9375 C22.95414632 9.45414632 24.33111222 9.0986755 26.4453125 9.1484375 C27.26773438 9.17679687 28.09015625 9.20515625 28.9375 9.234375 C30.66386557 9.28575493 32.39045311 9.33022377 34.1171875 9.3671875 C39.47854467 9.56698963 43.75648629 10.06479965 48.4375 12.9375 C53.852545 18.91682846 54.15183033 24.90166666 54.03125 32.6640625 C54.03129028 33.77051117 54.03133057 34.87695984 54.03137207 36.01693726 C54.02603269 38.34500846 54.00851833 40.67308018 53.97949219 43.00097656 C53.93754712 46.55850398 53.9384367 50.11414127 53.9453125 53.671875 C53.93482204 55.94011728 53.92188472 58.20834984 53.90625 60.4765625 C53.90594788 62.06581039 53.90594788 62.06581039 53.90563965 63.68716431 C53.81808537 69.16091351 53.58705807 73.24805321 50.4375 77.9375 C45.29273403 82.58033758 41.99663849 83.09730378 35.2434082 83.14624023 C34.39604599 83.15602402 33.54868378 83.1658078 32.67564392 83.17588806 C29.86320573 83.20587216 27.05081529 83.22723801 24.23828125 83.24609375 C22.79783982 83.25595149 22.79783982 83.25595149 21.32829857 83.26600838 C16.24337614 83.29861822 11.15847479 83.32306281 6.07348633 83.3425293 C1.8664698 83.36033187 -2.33987512 83.3951329 -6.54663086 83.44506836 C-11.62592116 83.50529314 -16.70458939 83.53600864 -21.78421974 83.54570198 C-23.71831304 83.55425563 -25.65238977 83.57307156 -27.58627892 83.6024456 C-30.29873139 83.64142034 -33.00876884 83.64238725 -35.72143555 83.63452148 C-36.51599152 83.65452209 -37.31054749 83.67452271 -38.12918091 83.69512939 C-43.44588904 83.62615569 -46.3587426 82.27803995 -50.18304729 78.56089306 C-53.28428477 74.91123739 -53.81229675 71.46773134 -53.85302734 66.79931641 C-53.86578705 65.80122955 -53.87854675 64.8031427 -53.89169312 63.77481079 C-53.89391876 62.70701385 -53.89614441 61.63921692 -53.8984375 60.5390625 C-53.9050943 59.43074066 -53.9117511 58.32241882 -53.91860962 57.18051147 C-53.9287229 54.83878232 -53.93342705 52.49702441 -53.93310547 50.15527344 C-53.93747591 46.58219669 -53.97380391 43.01035812 -54.01171875 39.4375 C-54.01758777 37.15885838 -54.02155659 34.88021091 -54.0234375 32.6015625 C-54.03780853 31.53781403 -54.05217957 30.47406555 -54.06698608 29.37808228 C-54.02794754 23.00585506 -53.39172974 19.10152433 -49.5625 13.9375 C-43.33047327 9.11972372 -37.74258438 9.46436842 -30.12109375 9.80078125 C-26.12535714 9.7946622 -23.55459202 9.76258071 -20.40161133 7.14038086 C-19.70060303 6.41729736 -18.99959473 5.69421387 -18.27734375 4.94921875 C-12.75962502 -0.49928564 -7.44641622 -0.22441254 0 0 Z " fill="#004B85" transform="translate(512.5625,314.0625)"/>
<path d="M0 0 C1.22847656 -0.02900391 2.45695313 -0.05800781 3.72265625 -0.08789062 C14.95761108 -0.16701003 14.95761108 -0.16701003 19.75 4.3125 C20.4925 5.2096875 21.235 6.106875 22 7.03125 C26.0442098 10.38610586 29.65453183 9.90850157 34.75 9.8125 C43.88959017 9.64030482 43.88959017 9.64030482 47.75 12.65625 C50.53526237 16.35542658 51.99895925 18.3459672 52.0246582 22.96411133 C52.03419022 23.90551468 52.04372223 24.84691803 52.05354309 25.81684875 C52.05263168 26.83248398 52.05172028 27.8481192 52.05078125 28.89453125 C52.05506638 29.94146652 52.0593515 30.98840179 52.06376648 32.06706238 C52.06951266 34.28371457 52.07000794 36.50038562 52.06567383 38.71704102 C52.06252197 42.10140404 52.0859419 45.48488623 52.11132812 48.86914062 C52.11360195 51.0234364 52.11430423 53.17773452 52.11328125 55.33203125 C52.122491 56.34159378 52.13170074 57.35115631 52.14118958 58.39131165 C52.09994285 64.68785586 51.39450806 69.11705276 47.25 74.125 C43.57283565 77.03608844 39.14075662 76.47409318 34.7019043 76.48950195 C33.88205048 76.49607315 33.06219666 76.50264435 32.21749878 76.50941467 C29.50307117 76.52913279 26.78869883 76.54080657 24.07421875 76.55078125 C23.14669107 76.55485678 22.2191634 76.5589323 21.26352882 76.56313133 C16.35480599 76.5839851 11.44611106 76.59829018 6.53735352 76.60766602 C1.46977875 76.61873281 -3.5973572 76.65313779 -8.6647768 76.69283772 C-12.56388664 76.71899191 -16.46289168 76.72735676 -20.36208153 76.73094749 C-22.22997186 76.73581605 -24.09785742 76.74743771 -25.965662 76.76598549 C-28.58203482 76.7903531 -31.19726897 76.78941653 -33.8137207 76.7824707 C-34.58224869 76.79528076 -35.35077667 76.80809082 -36.14259338 76.82128906 C-41.32471828 76.7712502 -44.28473107 75.62760527 -48.25 72.3125 C-51.66143142 66.60514683 -51.70376667 61.31402578 -51.68359375 54.77734375 C-51.6888356 53.78046036 -51.69407745 52.78357697 -51.69947815 51.75648499 C-51.70587675 49.65789722 -51.7045895 47.55927349 -51.69604492 45.46069336 C-51.6875169 42.25634925 -51.71635648 39.05377854 -51.74804688 35.84960938 C-51.74965868 33.80468803 -51.74908175 31.75976355 -51.74609375 29.71484375 C-51.75732773 28.761577 -51.76856171 27.80831024 -51.78013611 26.82615662 C-51.70702918 19.82864994 -50.25311101 16.65162343 -45.57421875 11.44921875 C-41.86642264 9.63582603 -38.12765402 10.0842819 -34.0625 10.125 C-27.7547461 10.02486746 -23.53075107 9.78258254 -18.6875 5.3125 C-17.52054096 3.99761658 -16.36913568 2.66831973 -15.25 1.3125 C-10.82569157 -0.89965421 -4.85818489 0.03775791 0 0 Z " fill="#1FCFE9" transform="translate(518.25,634.6875)"/>
<path d="M0 0 C1.18013672 -0.02255859 2.36027344 -0.04511719 3.57617188 -0.06835938 C9.61017979 0.0025495 13.56737292 0.39073931 18.21484375 4.43359375 C19.31868268 5.57360977 20.40162932 6.73538983 21.4375 7.9375 C22.95414632 9.45414632 24.33111222 9.0986755 26.4453125 9.1484375 C27.26773438 9.17679687 28.09015625 9.20515625 28.9375 9.234375 C30.66386557 9.28575493 32.39045311 9.33022377 34.1171875 9.3671875 C39.47854467 9.56698963 43.75648629 10.06479965 48.4375 12.9375 C53.852545 18.91682846 54.15183033 24.90166666 54.03125 32.6640625 C54.03129028 33.77051117 54.03133057 34.87695984 54.03137207 36.01693726 C54.02603269 38.34500846 54.00851833 40.67308018 53.97949219 43.00097656 C53.93754712 46.55850398 53.9384367 50.11414127 53.9453125 53.671875 C53.93482204 55.94011728 53.92188472 58.20834984 53.90625 60.4765625 C53.90594788 62.06581039 53.90594788 62.06581039 53.90563965 63.68716431 C53.81808537 69.16091351 53.58705807 73.24805321 50.4375 77.9375 C45.29273403 82.58033758 41.99663849 83.09730378 35.2434082 83.14624023 C34.39604599 83.15602402 33.54868378 83.1658078 32.67564392 83.17588806 C29.86320573 83.20587216 27.05081529 83.22723801 24.23828125 83.24609375 C22.79783982 83.25595149 22.79783982 83.25595149 21.32829857 83.26600838 C16.24337614 83.29861822 11.15847479 83.32306281 6.07348633 83.3425293 C1.8664698 83.36033187 -2.33987512 83.3951329 -6.54663086 83.44506836 C-11.62592116 83.50529314 -16.70458939 83.53600864 -21.78421974 83.54570198 C-23.71831304 83.55425563 -25.65238977 83.57307156 -27.58627892 83.6024456 C-30.29873139 83.64142034 -33.00876884 83.64238725 -35.72143555 83.63452148 C-36.51599152 83.65452209 -37.31054749 83.67452271 -38.12918091 83.69512939 C-43.44588904 83.62615569 -46.3587426 82.27803995 -50.18304729 78.56089306 C-53.28428477 74.91123739 -53.81229675 71.46773134 -53.85302734 66.79931641 C-53.86578705 65.80122955 -53.87854675 64.8031427 -53.89169312 63.77481079 C-53.89391876 62.70701385 -53.89614441 61.63921692 -53.8984375 60.5390625 C-53.9050943 59.43074066 -53.9117511 58.32241882 -53.91860962 57.18051147 C-53.9287229 54.83878232 -53.93342705 52.49702441 -53.93310547 50.15527344 C-53.93747591 46.58219669 -53.97380391 43.01035812 -54.01171875 39.4375 C-54.01758777 37.15885838 -54.02155659 34.88021091 -54.0234375 32.6015625 C-54.03780853 31.53781403 -54.05217957 30.47406555 -54.06698608 29.37808228 C-54.02794754 23.00585506 -53.39172974 19.10152433 -49.5625 13.9375 C-43.33047327 9.11972372 -37.74258438 9.46436842 -30.12109375 9.80078125 C-26.12535714 9.7946622 -23.55459202 9.76258071 -20.40161133 7.14038086 C-19.70060303 6.41729736 -18.99959473 5.69421387 -18.27734375 4.94921875 C-12.75962502 -0.49928564 -7.44641622 -0.22441254 0 0 Z M-14.0234375 13.953125 C-16.01666572 16.61471981 -16.91922384 17.76855879 -20.17285156 18.62304688 C-23.20142485 18.80280214 -26.15578956 18.7990731 -29.1875 18.6875 C-31.22105483 18.64396041 -33.25505714 18.61732033 -35.2890625 18.609375 C-36.62831787 18.56441895 -36.62831787 18.56441895 -37.99462891 18.51855469 C-41.72531981 19.12721276 -43.11831794 20.01992813 -45.5625 22.9375 C-46.30190301 26.44595981 -46.23903815 29.89453002 -46.19140625 33.46875 C-46.19381821 34.49681763 -46.19623016 35.52488525 -46.19871521 36.58410645 C-46.19773639 38.75614278 -46.18433455 40.92820395 -46.15942383 43.10009766 C-46.12512206 46.42566636 -46.13876213 49.7485775 -46.15820312 53.07421875 C-46.1513046 55.18490715 -46.14163216 57.29558869 -46.12890625 59.40625 C-46.13386612 60.40112427 -46.13882599 61.39599854 -46.14393616 62.42102051 C-46.12809982 63.34878296 -46.11226349 64.27654541 -46.09594727 65.23242188 C-46.08974869 66.04642456 -46.08355011 66.86042725 -46.0771637 67.69909668 C-45.33430911 70.92996021 -44.27236252 72.03015951 -41.5625 73.9375 C-38.75525362 74.32705502 -36.34177635 74.47503089 -33.53686523 74.43920898 C-32.32889786 74.44731346 -32.32889786 74.44731346 -31.0965271 74.45558167 C-28.43767418 74.46807754 -25.77990216 74.45157425 -23.12109375 74.43359375 C-21.27311649 74.4337487 -19.42513889 74.43523707 -17.5771637 74.43800354 C-13.70599994 74.43938786 -9.83520654 74.42682276 -5.96411133 74.40405273 C-0.99828926 74.3756481 3.9669183 74.37841034 8.93278599 74.39114285 C12.74774947 74.3980919 16.5625705 74.39031995 20.37751579 74.37788582 C22.20877474 74.37336518 24.04004894 74.37303985 25.87130928 74.37695122 C28.42827942 74.37985639 30.98439724 74.36339106 33.54125977 74.34155273 C34.30030106 74.34605438 35.05934235 74.35055603 35.84138489 74.35519409 C38.73914587 74.31399916 40.90911011 74.26657624 43.40576172 72.71168518 C44.74993622 70.40023224 44.82465919 68.81909622 44.84155273 66.14648438 C44.85423691 65.1753772 44.86692108 64.20427002 44.87998962 63.20373535 C44.87705399 62.15681519 44.87411835 61.10989502 44.87109375 60.03125 C44.8763356 58.95500366 44.88157745 57.87875732 44.88697815 56.76989746 C44.89340394 54.49357975 44.8920542 52.21722885 44.88354492 49.94091797 C44.87503268 46.4508986 44.90379404 42.96251391 44.93554688 39.47265625 C44.93715883 37.26302133 44.93658147 35.05338349 44.93359375 32.84375 C44.94482773 31.79682983 44.95606171 30.74990967 44.96763611 29.67126465 C44.95825516 28.70015747 44.94887421 27.72905029 44.93920898 26.72851562 C44.93904282 25.87374634 44.93887665 25.01897705 44.93870544 24.13830566 C44.61497986 21.77470328 44.61497986 21.77470328 42.55380249 20.15715027 C39.97958877 18.67360032 38.43475435 18.62168584 35.48046875 18.70703125 C34.53236328 18.70767578 33.58425781 18.70832031 32.60742188 18.70898438 C30.63049056 18.73617204 28.65372441 18.78282641 26.67773438 18.84960938 C19.34020659 18.80489864 19.34020659 18.80489864 16.56494141 16.13818359 C15.47264545 14.67951133 14.38109178 13.22028292 13.2902832 11.76049805 C10.30995874 8.82808498 7.38940179 8.88820771 3.34375 8.84375 C1.90515625 8.89015625 1.90515625 8.89015625 0.4375 8.9375 C-0.5215625 8.9065625 -1.480625 8.875625 -2.46875 8.84375 C-8.01274981 8.90467307 -10.65692915 9.41112306 -14.0234375 13.953125 Z " fill="#386289" transform="translate(512.5625,314.0625)"/>
<path d="M0 0 C1.22847656 -0.02900391 2.45695313 -0.05800781 3.72265625 -0.08789062 C14.95761108 -0.16701003 14.95761108 -0.16701003 19.75 4.3125 C20.4925 5.2096875 21.235 6.106875 22 7.03125 C26.0442098 10.38610586 29.65453183 9.90850157 34.75 9.8125 C43.88959017 9.64030482 43.88959017 9.64030482 47.75 12.65625 C50.53526237 16.35542658 51.99895925 18.3459672 52.0246582 22.96411133 C52.03419022 23.90551468 52.04372223 24.84691803 52.05354309 25.81684875 C52.05263168 26.83248398 52.05172028 27.8481192 52.05078125 28.89453125 C52.05506638 29.94146652 52.0593515 30.98840179 52.06376648 32.06706238 C52.06951266 34.28371457 52.07000794 36.50038562 52.06567383 38.71704102 C52.06252197 42.10140404 52.0859419 45.48488623 52.11132812 48.86914062 C52.11360195 51.0234364 52.11430423 53.17773452 52.11328125 55.33203125 C52.122491 56.34159378 52.13170074 57.35115631 52.14118958 58.39131165 C52.09994285 64.68785586 51.39450806 69.11705276 47.25 74.125 C43.57283565 77.03608844 39.14075662 76.47409318 34.7019043 76.48950195 C33.88205048 76.49607315 33.06219666 76.50264435 32.21749878 76.50941467 C29.50307117 76.52913279 26.78869883 76.54080657 24.07421875 76.55078125 C23.14669107 76.55485678 22.2191634 76.5589323 21.26352882 76.56313133 C16.35480599 76.5839851 11.44611106 76.59829018 6.53735352 76.60766602 C1.46977875 76.61873281 -3.5973572 76.65313779 -8.6647768 76.69283772 C-12.56388664 76.71899191 -16.46289168 76.72735676 -20.36208153 76.73094749 C-22.22997186 76.73581605 -24.09785742 76.74743771 -25.965662 76.76598549 C-28.58203482 76.7903531 -31.19726897 76.78941653 -33.8137207 76.7824707 C-34.58224869 76.79528076 -35.35077667 76.80809082 -36.14259338 76.82128906 C-41.32471828 76.7712502 -44.28473107 75.62760527 -48.25 72.3125 C-51.66143142 66.60514683 -51.70376667 61.31402578 -51.68359375 54.77734375 C-51.6888356 53.78046036 -51.69407745 52.78357697 -51.69947815 51.75648499 C-51.70587675 49.65789722 -51.7045895 47.55927349 -51.69604492 45.46069336 C-51.6875169 42.25634925 -51.71635648 39.05377854 -51.74804688 35.84960938 C-51.74965868 33.80468803 -51.74908175 31.75976355 -51.74609375 29.71484375 C-51.75732773 28.761577 -51.76856171 27.80831024 -51.78013611 26.82615662 C-51.70702918 19.82864994 -50.25311101 16.65162343 -45.57421875 11.44921875 C-41.86642264 9.63582603 -38.12765402 10.0842819 -34.0625 10.125 C-27.7547461 10.02486746 -23.53075107 9.78258254 -18.6875 5.3125 C-17.52054096 3.99761658 -16.36913568 2.66831973 -15.25 1.3125 C-10.82569157 -0.89965421 -4.85818489 0.03775791 0 0 Z M-16.84765625 13.3671875 C-18.49785515 15.65632135 -19.65830544 16.2485746 -22.25 17.3125 C-24.41650391 17.59960938 -24.41650391 17.59960938 -26.7265625 17.65625 C-27.561875 17.68589844 -28.3971875 17.71554687 -29.2578125 17.74609375 C-31.01041165 17.79056268 -32.76301588 17.83483176 -34.515625 17.87890625 C-35.34835937 17.90855469 -36.18109375 17.93820312 -37.0390625 17.96875 C-38.17915771 17.99678711 -38.17915771 17.99678711 -39.34228516 18.02539062 C-41.48879663 18.15529764 -41.48879663 18.15529764 -43.25 20.3125 C-43.5619648 22.31019298 -43.5619648 22.31019298 -43.5246582 24.62280273 C-43.53419022 25.51390244 -43.54372223 26.40500214 -43.55354309 27.32310486 C-43.55263168 28.28769119 -43.55172028 29.25227753 -43.55078125 30.24609375 C-43.55506638 31.23497086 -43.5593515 32.22384796 -43.56376648 33.24269104 C-43.56951637 35.3366723 -43.57000521 37.43067353 -43.56567383 39.5246582 C-43.56251616 42.7335816 -43.58595718 45.94158147 -43.61132812 49.15039062 C-43.61360122 51.1822905 -43.61430457 53.21419286 -43.61328125 55.24609375 C-43.622491 56.20865585 -43.63170074 57.17121796 -43.64118958 58.16294861 C-43.63496078 59.05720047 -43.62873199 59.95145233 -43.62231445 60.87280273 C-43.62294388 61.65952866 -43.6235733 62.44625458 -43.6242218 63.25682068 C-43.36599728 65.34630842 -43.36599728 65.34630842 -42.2164917 67.06671143 C-39.13585843 69.0183178 -35.94637605 68.72068158 -32.41381836 68.68481445 C-31.61680008 68.68846512 -30.8197818 68.69211578 -29.99861145 68.69587708 C-27.36213933 68.70398822 -24.72628067 68.69036922 -22.08984375 68.67578125 C-20.26046245 68.67526276 -18.43108058 68.67578003 -16.60169983 68.67729187 C-12.76750371 68.67720212 -8.93351776 68.66676706 -5.09936523 68.64868164 C-0.17723501 68.62597837 4.74458844 68.625453 9.66675663 68.63219929 C13.44391115 68.63553552 17.22099533 68.62891599 20.99813652 68.61907005 C22.81347727 68.61521299 24.62882584 68.61407193 26.44417 68.6156559 C28.9773369 68.61602546 31.51010562 68.60343771 34.04321289 68.5871582 C34.79806976 68.58963562 35.55292664 68.59211304 36.33065796 68.59466553 C40.49641884 68.68629878 40.49641884 68.68629878 43.75 66.3125 C44.0623315 64.22621723 44.0623315 64.22621723 44.0246582 61.80273438 C44.03419022 60.86836548 44.04372223 59.93399658 44.05354309 58.97131348 C44.05263168 57.95984253 44.05172028 56.94837158 44.05078125 55.90625 C44.05720894 54.3527887 44.05720894 54.3527887 44.06376648 52.76794434 C44.06951633 50.57560966 44.07000524 48.3832559 44.06567383 46.19091797 C44.06251284 42.82616852 44.08596899 39.46229695 44.11132812 36.09765625 C44.11360084 33.97135528 44.11430474 31.84505194 44.11328125 29.71875 C44.122491 28.70727905 44.13170074 27.69580811 44.14118958 26.65368652 C44.13184639 25.25213318 44.13184639 25.25213318 44.12231445 23.82226562 C44.12325859 22.58555115 44.12325859 22.58555115 44.1242218 21.32385254 C44.00072861 20.6601062 43.87723541 19.99635986 43.75 19.3125 C40.67027734 17.25935156 39.99379549 17.06703706 36.51171875 17.0390625 C35.28098633 17.008125 35.28098633 17.008125 34.02539062 16.9765625 C32.31194718 16.9506992 30.59837215 16.93236379 28.88476562 16.921875 C23.33451221 16.76565207 20.1452309 16.00373288 15.75 12.3125 C15.01394531 11.42175781 14.27789063 10.53101563 13.51953125 9.61328125 C9.39794685 6.18928519 5.65176165 6.43748865 0.4375 6.5 C-0.50859131 6.50338379 -1.45468262 6.50676758 -2.42944336 6.51025391 C-9.01211892 6.75204075 -12.89300217 7.75218247 -16.84765625 13.3671875 Z " fill="#293860" transform="translate(518.25,634.6875)"/>
<path d="M0 0 C4.63025888 3.42639157 7.40593061 6.81652055 9.125 12.3125 C9.43564064 15.44364561 9.45287191 18.56219891 9.4609375 21.70703125 C9.4675943 22.61321701 9.4742511 23.51940277 9.48110962 24.45304871 C9.49121438 26.36687192 9.49592731 28.28073021 9.49560547 30.19458008 C9.4999699 33.10492846 9.53628796 36.01374864 9.57421875 38.92382812 C9.58008932 40.78905735 9.58405711 42.65429373 9.5859375 44.51953125 C9.60030853 45.38125443 9.61467957 46.2429776 9.62948608 47.1308136 C9.58128622 53.58640066 8.2197586 59.12632754 3.60678101 63.87556458 C-1.35120855 68.11661326 -4.59917021 68.72761464 -10.98046875 68.65234375 C-15.43594648 68.12923098 -18.72715394 66.50241082 -21.875 63.3125 C-25.99261495 57.4423785 -26.47853854 52.92220615 -26.44140625 45.84765625 C-26.44760483 44.8555162 -26.45380341 43.86337616 -26.46018982 42.84117126 C-26.46726743 40.75097633 -26.46415013 38.66072477 -26.45141602 36.57055664 C-26.43755561 33.38777003 -26.47164697 30.2079292 -26.50976562 27.02539062 C-26.51071701 24.98697845 -26.50885697 22.94856263 -26.50390625 20.91015625 C-26.51716446 19.96721207 -26.53042267 19.02426788 -26.54408264 18.05274963 C-26.454543 11.63895559 -25.07736048 7.24005294 -20.875 2.3125 C-14.96341747 -2.75875424 -6.96033791 -3.65940512 0 0 Z " fill="#28466E" transform="translate(679.875,463.6875)"/>
<path d="M0 0 C4.55894383 3.15619188 8.31013684 6.6171213 10 12 C10.95360912 19.61914224 10.81874088 26.7430503 6 33 C2.0323486 37.23940834 -2.2557805 39.6303124 -8.015625 40.40625 C-14.78502437 40.60246447 -19.69171856 40.22653992 -25.12109375 35.95703125 C-29.98451906 30.89138451 -32.25198227 25.37135266 -32.5625 18.375 C-32.1809528 11.25613257 -29.83011577 6.39805796 -24.5625 1.625 C-16.81344554 -4.41663568 -8.57513523 -4.42989351 0 0 Z " fill="#396288" transform="translate(523,341)"/>
<path d="M0 0 C5.19039543 2.97967145 8.81220493 7.87411478 10.6875 13.5 C11.428915 20.34289581 10.77803621 25.8487669 6.6875 31.5 C2.89711997 35.58114891 -1.37096295 38.12186519 -6.92578125 38.8359375 C-14.09105209 38.93963172 -19.51490211 38.04189928 -24.87890625 33.0390625 C-29.89338953 27.4102693 -29.66704835 21.88832777 -29.5859375 14.62890625 C-29.01224911 8.06427194 -24.73324266 4.71893754 -19.99609375 0.69921875 C-14.58260397 -3.1567937 -5.87209733 -2.57329362 0 0 Z " fill="#283C64" transform="translate(528.3125,657.5)"/>
<path d="M0 0 C3.53571429 0.53571429 3.53571429 0.53571429 5 2 C5.13384167 4.33181936 5.23144963 6.66574938 5.3125 9 C5.82901712 18.46277253 8.0539955 25.10359908 15.16796875 31.55859375 C21.01054789 36.15542041 26.41270966 36.60758042 33.7109375 36.40625 C40.75543214 35.53614615 46.0426642 32.64565206 50.5 27.125 C55.08349649 20.15292084 55.30974305 13.16329479 55.65625 5.01171875 C56 2 56 2 58 0 C61.53571429 0.53571429 61.53571429 0.53571429 63 2 C63.90438425 13.35669403 63.17734636 23.39279166 55.5625 32.4375 C54.39482889 33.64450319 53.20943425 34.83484709 52 36 C51.2575 36.7425 50.515 37.485 49.75 38.25 C45.32802841 41.06398192 39.33560689 44 34 44 C34 47.63 34 51.26 34 55 C35.27617188 54.97679687 36.55234375 54.95359375 37.8671875 54.9296875 C39.5364525 54.91093171 41.2057238 54.89273131 42.875 54.875 C43.71675781 54.85824219 44.55851563 54.84148438 45.42578125 54.82421875 C46.23144531 54.81777344 47.03710938 54.81132813 47.8671875 54.8046875 C48.61081543 54.79421387 49.35444336 54.78374023 50.12060547 54.77294922 C52 55 52 55 54 57 C53.75 59.5625 53.75 59.5625 53 62 C49.58101325 63.70949338 45.66838387 63.16321249 41.90625 63.16796875 C40.5525531 63.17296135 40.5525531 63.17296135 39.17150879 63.17805481 C37.26164256 63.18312194 35.35176747 63.1854632 33.44189453 63.18530273 C30.51189699 63.18749111 27.58227472 63.20565418 24.65234375 63.22460938 C22.79948046 63.22754289 20.94661537 63.22952797 19.09375 63.23046875 C17.77340759 63.24124702 17.77340759 63.24124702 16.4263916 63.25224304 C10.22882548 63.22882548 10.22882548 63.22882548 8 61 C8.55555556 56.44444444 8.55555556 56.44444444 10 55 C12.86267567 54.92674832 15.700719 54.90761795 18.5625 54.9375 C19.36880859 54.94201172 20.17511719 54.94652344 21.00585938 54.95117188 C23.00393756 54.96299482 25.00197783 54.98093086 27 55 C27 51.37 27 47.74 27 44 C25.845 43.7525 24.69 43.505 23.5 43.25 C14.45866516 40.93784206 7.35105961 36.61973563 2.48828125 28.46484375 C-0.90602115 21.86102905 -2.18037517 16.81331757 -2.1875 9.375 C-2.19974609 8.694375 -2.21199219 8.01375 -2.22460938 7.3125 C-2.22986355 5.54009244 -2.12215906 3.7682006 -2 2 C-1.34 1.34 -0.68 0.68 0 0 Z " fill="#293960" transform="translate(641,505)"/>
<path d="M0 0 C4.35550991 3.09911282 7.51920022 6.12010065 9.25 11.3125 C9.35530744 12.72737562 9.4084025 14.14651831 9.42700195 15.56518555 C9.44625481 16.84748299 9.44625481 16.84748299 9.46589661 18.15568542 C9.47328354 19.07755142 9.48067047 19.99941742 9.48828125 20.94921875 C9.496353 21.9026265 9.50442474 22.85603424 9.51274109 23.83833313 C9.52657449 25.85826809 9.53729998 27.87822635 9.54516602 29.89819336 C9.56233793 32.97099834 9.6062261 36.04271576 9.65039062 39.11523438 C9.66052164 41.08072128 9.66903646 43.04621731 9.67578125 45.01171875 C9.69328934 45.92346359 9.71079742 46.83520844 9.72883606 47.77458191 C9.70660226 54.39118427 8.4732578 59.99854384 3.73164368 64.87358093 C-1.51681827 69.36996255 -5.01696529 69.66245199 -11.76953125 69.58984375 C-17.16932025 69.08737321 -20.04298127 66.23052233 -23.5 62.375 C-27.79579572 56.52794472 -28.07861894 51.74577055 -28.12109375 44.69921875 C-28.13012222 43.77083694 -28.1391507 42.84245514 -28.14845276 41.88594055 C-28.16293243 39.92505099 -28.17183631 37.96411336 -28.17553711 36.00317383 C-28.1874197 33.02015743 -28.23661563 30.03922006 -28.28710938 27.05664062 C-28.29657626 25.14584336 -28.30381002 23.23503347 -28.30859375 21.32421875 C-28.33789223 19.99882332 -28.33789223 19.99882332 -28.36778259 18.64665222 C-28.32228427 12.32728551 -26.72948964 8.23295725 -22.75 3.3125 C-15.95509934 -3.14265563 -8.4043433 -4.3856726 0 0 Z M-19.75 10.3125 C-21.44671408 13.70592815 -20.93490156 17.56672512 -20.953125 21.30078125 C-20.95882507 22.19613083 -20.96452515 23.09148041 -20.97039795 24.01396179 C-20.9798539 25.91123267 -20.98638429 27.80852001 -20.99023438 29.70581055 C-20.99992639 32.6029953 -21.03093831 35.49946662 -21.0625 38.39648438 C-21.06903143 40.23957912 -21.07428135 42.08267894 -21.078125 43.92578125 C-21.0904718 44.79052567 -21.1028186 45.65527008 -21.11553955 46.54621887 C-21.09262335 52.76200845 -19.9202585 56.08195654 -15.5 60.625 C-11.94526959 62.80631184 -9.86032181 62.82629023 -5.75 62.3125 C-2.0453926 60.62858754 0.26989935 58.86261717 2.25 55.3125 C2.72377467 52.12062528 2.7180297 48.9490861 2.71875 45.7265625 C2.72636353 44.7920224 2.73397705 43.8574823 2.74182129 42.8946228 C2.75261699 40.91935901 2.75547754 38.94403816 2.75097656 36.96875 C2.75000556 33.95475393 2.79160496 30.9433152 2.8359375 27.9296875 C2.84114576 26.00781779 2.84383267 24.08593926 2.84375 22.1640625 C2.86014526 21.26700592 2.87654053 20.36994934 2.89343262 19.44570923 C2.84574237 15.10212868 2.62582836 12.20759022 -0.16210938 8.75927734 C-3.95935743 5.16908678 -6.35008797 4.92040379 -11.421875 4.953125 C-15.34004236 5.55794278 -17.05358816 7.48126757 -19.75 10.3125 Z " fill="#3E5B7E" transform="translate(363.75,471.6875)"/>
<path d="M0 0 C-3.19170321 2.7214281 -6.10599636 3.80927368 -10.125 4.9375 C-18.75525644 7.48318458 -26.68777304 10.74828714 -34.69140625 14.84375 C-37.73626855 16.36875718 -40.8675742 17.66581864 -44 19 C-46.11098973 20.05742447 -48.20996581 21.13371487 -50.30078125 22.23046875 C-52 23 -52 23 -54 23 C-54.495 24.485 -54.495 24.485 -55 26 C-56.6419127 26.72549631 -58.31514429 27.38073958 -60 28 C-74.80150794 35.65682807 -74.80150794 35.65682807 -86 47 C-87.43859375 47.73476563 -87.43859375 47.73476563 -88.90625 48.484375 C-94.6575557 51.65933049 -98.94802932 56.59501443 -103.5 61.25 C-104.86705078 62.62478516 -104.86705078 62.62478516 -106.26171875 64.02734375 C-110.83640176 68.65483696 -115.28057452 73.34802581 -119.52050781 78.28417969 C-121.49746612 80.57692936 -123.5646176 82.78227931 -125.625 85 C-129.33565086 89.09757343 -132.25094809 93.21132894 -135 98 C-133.7934375 97.5978125 -133.7934375 97.5978125 -132.5625 97.1875 C-130.7990625 96.5996875 -130.7990625 96.5996875 -129 96 C-128.25363281 95.73574219 -127.50726563 95.47148437 -126.73828125 95.19921875 C-125.95839844 94.92722656 -125.17851562 94.65523438 -124.375 94.375 C-123.64023437 94.11460937 -122.90546875 93.85421875 -122.1484375 93.5859375 C-120 93 -120 93 -116 93 C-116 92.34 -116 91.68 -116 91 C-94.34596282 86.34500544 -72.26767618 88.09141185 -52 97 C-51.03835938 97.41894531 -50.07671875 97.83789062 -49.0859375 98.26953125 C-42.87509838 101.17406114 -37.21515067 104.70909299 -31.5625 108.5625 C-30.88791748 109.02156738 -30.21333496 109.48063477 -29.51831055 109.95361328 C-25.62425439 112.6723902 -22.26901042 115.52770658 -19 119 C-17.83210938 120.18916016 -17.83210938 120.18916016 -16.640625 121.40234375 C-1.04027974 137.94584714 8.92237181 158.68562943 11.5390625 181.40234375 C11.6025001 184.80633761 11.6025001 184.80633761 13 186 C13.66 185.01 14.32 184.02 15 183 C25.23650346 173.67157346 37.69043453 168.10790645 51 165 C51.59621155 164.82497452 52.1924231 164.64994904 52.80670166 164.46961975 C55.58554804 163.87462493 58.21143757 163.83578499 61.05371094 163.79467773 C62.27467468 163.77473251 63.49563843 163.75478729 64.75360107 163.73423767 C66.72408417 163.70916893 66.72408417 163.70916893 68.734375 163.68359375 C70.09629936 163.66301081 71.45821752 163.64201399 72.82012939 163.62062073 C76.39734872 163.56553835 79.97462438 163.51606836 83.55194092 163.46777344 C87.20525094 163.41745711 90.85847958 163.36182403 94.51171875 163.30664062 C101.67441017 163.19922838 108.83716946 163.09774615 116 163 C115.67 163.66 115.34 164.32 115 165 C102.32894745 167.78192012 89.2208365 167.1513129 76.3425293 166.88354492 C55.29598543 166.48029354 34.98433264 169.42799234 18.640625 184.12109375 C16.71042533 186.04072664 14.84471777 187.99865525 13 190 C12.00273679 191.00272933 11.00315179 192.00316175 10 193 C9.90501221 192.351521 9.81002441 191.70304199 9.7121582 191.03491211 C6.24718014 167.80824907 0.99276633 145.94848924 -15 128 C-15.60199219 127.25621094 -16.20398438 126.51242187 -16.82421875 125.74609375 C-32.2116759 107.19727224 -56.71821887 94.9054813 -80.515625 92.24609375 C-101.59073465 90.75760506 -122.34915394 93.93781766 -140.1796875 105.99609375 C-140.78039062 106.32738281 -141.38109375 106.65867187 -142 107 C-142.66 106.67 -143.32 106.34 -144 106 C-134.97697232 90.80850248 -123.87512859 77.26254382 -111.57666016 64.62353516 C-110.16686874 63.17182984 -108.77550001 61.70228626 -107.38671875 60.23046875 C-101.38676777 53.99484048 -94.86660926 48.66478827 -87.96435547 43.47705078 C-86.63332568 42.47621431 -85.30694643 41.46916832 -83.98486328 40.45654297 C-63.81312441 25.04170745 -26.93296768 -1.99503464 0 0 Z " fill="#032C61" transform="translate(446,277)"/>
<path d="M0 0 C3.53571429 0.53571429 3.53571429 0.53571429 5 2 C5.9431583 13.8620294 4.35016246 24.1412932 -2.9140625 33.765625 C-8.53341955 39.78486139 -14.84202565 42.6978528 -23 43 C-23 46.3 -23 49.6 -23 53 C-18.71 53 -14.42 53 -10 53 C-9.505 55.475 -9.505 55.475 -9 58 C-11.46002787 60.46002787 -12.84793839 60.24552005 -16.20666504 60.27789307 C-16.91190308 60.2738446 -17.61714111 60.26979614 -18.34375 60.265625 C-19.43109436 60.26849518 -19.43109436 60.26849518 -20.54040527 60.27142334 C-22.07365262 60.27278487 -23.6069115 60.26909064 -25.14013672 60.26074219 C-27.49082259 60.25004178 -29.84074423 60.26063808 -32.19140625 60.2734375 C-33.67968919 60.2721159 -35.16797166 60.26955349 -36.65625 60.265625 C-37.36148804 60.26967346 -38.06672607 60.27372192 -38.79333496 60.27789307 C-43.77007514 60.22992486 -43.77007514 60.22992486 -46 58 C-45.67 56.35 -45.34 54.7 -45 53 C-40.05 53 -35.1 53 -30 53 C-30 49.7 -30 46.4 -30 43 C-31.299375 42.95875 -32.59875 42.9175 -33.9375 42.875 C-41.18478895 42.05455219 -46.49163992 37.90614321 -51.3125 32.625 C-57.06345867 25.40435189 -59.13514141 18.49619724 -59.1875 9.3125 C-59.20167969 8.17425781 -59.21585937 7.03601563 -59.23046875 5.86328125 C-59 3 -59 3 -57 1 C-54.375 1.375 -54.375 1.375 -52 2 C-51.87044922 3.80984375 -51.87044922 3.80984375 -51.73828125 5.65625 C-50.87350413 16.06508114 -50.04323258 23.59877671 -42 30.875 C-34.84885634 35.94039342 -27.44833709 35.82099828 -19 35 C-12.9114153 33.30824938 -9.79094655 30.1714881 -6.5 24.875 C-3.29171588 19.01096958 -2.73537328 13.91955601 -2.48242188 7.36132812 C-2.21473861 2.21473861 -2.21473861 2.21473861 0 0 Z " fill="#3D597D" transform="translate(382,511)"/>
<path d="M0 0 C-0.95519531 0.47308594 -1.91039062 0.94617188 -2.89453125 1.43359375 C-20.46825386 10.33794781 -32.21362629 21.87927082 -42 39 C-42.67095703 40.16982422 -42.67095703 40.16982422 -43.35546875 41.36328125 C-45.61905359 45.57175126 -46.43481804 49.29015035 -47 54 C-47.66 54.66 -48.32 55.32 -49 56 C-55.53655008 75.2730667 -56.16307016 95.81912959 -56.1875 115.9375 C-56.18867828 116.68566986 -56.18985657 117.43383972 -56.19107056 118.2046814 C-57.09203641 133.57530657 -57.09203641 133.57530657 -54 148 C-53.86526968 149.62275181 -53.76812582 151.24866204 -53.6875 152.875 C-52.31067862 169.92328823 -47.42632463 185.7456282 -41.67089844 201.77368164 C-41 204 -41 204 -41 207 C-40.34 207.33 -39.68 207.66 -39 208 C-37.91864337 210.57409894 -36.93421359 213.12310238 -36 215.75 C-35.47958041 217.18244205 -34.95875606 218.61473712 -34.4375 220.046875 C-34.19257813 220.72556641 -33.94765625 221.40425781 -33.6953125 222.10351562 C-32.84514684 224.42236634 -31.93580277 226.7144817 -31 229 C-30.34 229 -29.68 229 -29 229 C-28.58878906 230.00933594 -28.17757813 231.01867187 -27.75390625 232.05859375 C-26.10346711 235.90061542 -24.1049567 239.49068808 -21.9375 243.0625 C-21.54755859 243.70662842 -21.15761719 244.35075684 -20.75585938 245.0144043 C-14.7073769 254.8672284 -8.1237344 264.0886362 -0.23046875 272.5546875 C2.96432404 276.05720989 5.90409422 279.75198479 8.859375 283.45703125 C12.7699293 288.10259849 17.20479453 292.16480593 21.6875 296.25 C22.64011719 297.12140625 23.59273438 297.9928125 24.57421875 298.890625 C26.8020154 301.00493863 26.8020154 301.00493863 29 302 C29 302.66 29 303.32 29 304 C29.51046875 304.22429687 30.0209375 304.44859375 30.546875 304.6796875 C33.99598163 306.53605381 37.08342773 308.82730426 40.25 311.125 C40.8996875 311.59292969 41.549375 312.06085938 42.21875 312.54296875 C43.81435483 313.69274282 45.40743025 314.84602566 47 316 C45.19165039 316.62451172 45.19165039 316.62451172 43 317 C40.62822487 315.45910151 38.58644461 313.93533192 36.4375 312.125 C35.82632324 311.62556885 35.21514648 311.1261377 34.58544922 310.61157227 C33.3296813 309.5838142 32.07805667 308.55097343 30.83056641 307.51318359 C29.11638064 306.09620261 27.38318729 304.70890436 25.63671875 303.33203125 C19.94977446 298.81050486 19.94977446 298.81050486 18 297 C18 296.34 18 295.68 18 295 C17.41226807 294.74057617 16.82453613 294.48115234 16.21899414 294.21386719 C13.83869785 292.9117621 12.35595064 291.54479886 10.49609375 289.578125 C9.84310303 288.88920166 9.1901123 288.20027832 8.51733398 287.49047852 C7.83098877 286.75112061 7.14464355 286.0117627 6.4375 285.25 C5.37221069 284.10905884 5.37221069 284.10905884 4.28540039 282.94506836 C-4.13884609 273.82205401 -11.69571955 264.17551441 -18.66015625 253.890625 C-19.99947773 251.8884753 -19.99947773 251.8884753 -22 250 C-23.77614448 247.04801074 -25.34987378 243.98503002 -26.96191406 240.94091797 C-28.13150757 238.7541192 -29.32795796 236.58290698 -30.5234375 234.41015625 C-40.80785647 215.51331385 -54.62059483 190.12238038 -54 168 C-54.66 167.67 -55.32 167.34 -56 167 C-56.46026146 164.19029933 -56.80050199 161.45457849 -57.0625 158.625 C-57.14048828 157.86316406 -57.21847656 157.10132813 -57.29882812 156.31640625 C-57.46104878 154.71028766 -57.61542084 153.1033628 -57.76318359 151.49584961 C-57.91523632 149.8933393 -58.08346039 148.29223494 -58.27197266 146.69360352 C-59.3681887 136.72988852 -59.24385643 126.69880587 -59.25 116.6875 C-59.25067474 115.70201172 -59.25134949 114.71652344 -59.25204468 113.70117188 C-59.23668782 99.60156357 -58.97567017 85.83614053 -56 72 C-55.74259033 70.73591309 -55.74259033 70.73591309 -55.47998047 69.44628906 C-50.02326854 43.22091215 -38.02023487 19.95106987 -15.05859375 4.88671875 C-4.65809433 -1.52891499 -4.65809433 -1.52891499 0 0 Z " fill="#021141" transform="translate(323,405)"/>
<path d="M0 0 C0.33 0 0.66 0 1 0 C1.33 11.88 1.66 23.76 2 36 C2.33 25.11 2.66 14.22 3 3 C3.33 3 3.66 3 4 3 C4.33 17.19 4.66 31.38 5 46 C9.25942957 48.12971479 12.25097593 48.29322323 16.85791016 48.28710938 C18.03902626 48.29735893 18.03902626 48.29735893 19.2440033 48.30781555 C20.95019306 48.321385 22.65642328 48.3304502 24.36265945 48.33552551 C27.06046991 48.34381578 29.75794208 48.36431966 32.45565796 48.38806152 C39.15280033 48.44446665 45.85002454 48.47973707 52.54730225 48.51568604 C58.21138666 48.54688102 63.87530574 48.58602427 69.53925705 48.63594055 C72.20161866 48.65606149 74.86385371 48.6643377 77.52627563 48.67224121 C79.15114815 48.68520781 80.77601638 48.69872726 82.40087891 48.71289062 C83.144814 48.71190872 83.88874908 48.71092682 84.65522766 48.70991516 C89.77230793 48.77230793 89.77230793 48.77230793 92 51 C91.34 51.99 90.68 52.98 90 54 C90.33 54.66 90.66 55.32 91 56 C80.15174738 56.2235409 69.30332983 56.42500331 58.45415306 56.59840012 C53.41626165 56.67960957 48.37874144 56.76837771 43.34130859 56.87451172 C38.47857479 56.97668535 33.61587345 57.05888381 28.75255203 57.12732697 C26.89851817 57.15691327 25.04458409 57.19365806 23.19083786 57.2377243 C20.59115842 57.2982914 17.99228618 57.33323482 15.39208984 57.36230469 C14.62819946 57.38603653 13.86430908 57.40976837 13.07727051 57.43421936 C7.88811982 57.45537764 4.93497719 56.37035717 1 53 C-1.0996333 50.01852915 -1.22789858 47.64246484 -1.13525391 44.04785156 C-1.11508209 43.06713684 -1.09491028 42.08642212 -1.0741272 41.07598877 C-1.02583267 39.4992337 -1.02583267 39.4992337 -0.9765625 37.890625 C-0.95153656 36.80867859 -0.92651062 35.72673218 -0.90072632 34.61199951 C-0.81858152 31.1576784 -0.72196937 27.70393366 -0.625 24.25 C-0.56675488 21.9075756 -0.50945173 19.56512757 -0.453125 17.22265625 C-0.31301086 11.48145197 -0.16101811 5.74065397 0 0 Z " fill="#274269" transform="translate(469,654)"/>
<path d="M0 0 C3.29110633 2.10070617 4.8333853 3.75007795 7 7 C7.75792684 11.57671208 8.06639478 16.12236011 5.7265625 20.2421875 C3.11761026 23.30929721 0.9854421 25.71325425 -3.13671875 26.30859375 C-8.05786993 26.55728899 -11.19141881 26.43214067 -15.0625 23.1875 C-18.35750989 20.0475494 -19.16522088 17.17563726 -19.3125 12.6875 C-19.244793 8.06085507 -18.16491776 5.498067 -15 2 C-10.09343642 -1.53729002 -5.66670666 -1.55782157 0 0 Z " fill="#014A84" transform="translate(518,347)"/>
<path d="M0 0 C-3.19170321 2.7214281 -6.10599636 3.80927368 -10.125 4.9375 C-18.75525644 7.48318458 -26.68777304 10.74828714 -34.69140625 14.84375 C-37.73626855 16.36875718 -40.8675742 17.66581864 -44 19 C-46.11098973 20.05742447 -48.20996581 21.13371487 -50.30078125 22.23046875 C-52 23 -52 23 -54 23 C-54.495 24.485 -54.495 24.485 -55 26 C-56.6419127 26.72549631 -58.31514429 27.38073958 -60 28 C-74.80150794 35.65682807 -74.80150794 35.65682807 -86 47 C-87.43859375 47.73476563 -87.43859375 47.73476563 -88.90625 48.484375 C-94.6575557 51.65933049 -98.94802932 56.59501443 -103.5 61.25 C-104.86705078 62.62478516 -104.86705078 62.62478516 -106.26171875 64.02734375 C-110.83640176 68.65483696 -115.28057452 73.34802581 -119.52050781 78.28417969 C-121.49746612 80.57692936 -123.5646176 82.78227931 -125.625 85 C-129.33565086 89.09757343 -132.25094809 93.21132894 -135 98 C-133.7934375 97.5978125 -133.7934375 97.5978125 -132.5625 97.1875 C-130.7990625 96.5996875 -130.7990625 96.5996875 -129 96 C-128.25363281 95.73574219 -127.50726563 95.47148437 -126.73828125 95.19921875 C-125.95839844 94.92722656 -125.17851562 94.65523438 -124.375 94.375 C-123.64023437 94.11460937 -122.90546875 93.85421875 -122.1484375 93.5859375 C-120 93 -120 93 -116 93 C-116 92.34 -116 91.68 -116 91 C-105.89658054 89.0320296 -96.2531361 88.77897431 -86 89 C-86.33 89.66 -86.66 90.32 -87 91 C-90.05356682 91.38094002 -93.05910009 91.65580821 -96.125 91.875 C-111.077817 93.16766251 -125.8699921 96.60828932 -138.625 104.875 C-139.73875 105.57625 -140.8525 106.2775 -142 107 C-142.66 106.67 -143.32 106.34 -144 106 C-134.97697232 90.80850248 -123.87512859 77.26254382 -111.57666016 64.62353516 C-110.16686874 63.17182984 -108.77550001 61.70228626 -107.38671875 60.23046875 C-101.38676777 53.99484048 -94.86660926 48.66478827 -87.96435547 43.47705078 C-86.63332568 42.47621431 -85.30694643 41.46916832 -83.98486328 40.45654297 C-63.81312441 25.04170745 -26.93296768 -1.99503464 0 0 Z " fill="#022B60" transform="translate(446,277)"/>
<path d="M0 0 C0.95261719 0.0721875 1.90523437 0.144375 2.88671875 0.21875 C4.76810547 0.35796875 4.76810547 0.35796875 6.6875 0.5 C7.92886719 0.5928125 9.17023437 0.685625 10.44921875 0.78125 C13.31499329 0.95779937 16.13099957 1.04388528 19 1 C19 2.32 19 3.64 19 5 C18.01 5 17.02 5 16 5 C16 5.66 16 6.32 16 7 C15.34 7 14.68 7 14 7 C14 10.63 14 14.26 14 18 C15.27617188 17.97679687 16.55234375 17.95359375 17.8671875 17.9296875 C19.5364525 17.91093171 21.2057238 17.89273131 22.875 17.875 C23.71675781 17.85824219 24.55851563 17.84148438 25.42578125 17.82421875 C26.63427734 17.81455078 26.63427734 17.81455078 27.8671875 17.8046875 C28.61081543 17.79421387 29.35444336 17.78374023 30.12060547 17.77294922 C32 18 32 18 34 20 C33.75 22.5625 33.75 22.5625 33 25 C29.58101325 26.70949338 25.66838387 26.16321249 21.90625 26.16796875 C20.5525531 26.17296135 20.5525531 26.17296135 19.17150879 26.17805481 C17.26164256 26.18312194 15.35176747 26.1854632 13.44189453 26.18530273 C10.51189699 26.18749111 7.58227472 26.20565418 4.65234375 26.22460938 C2.79948046 26.22754289 0.94661537 26.22952797 -0.90625 26.23046875 C-1.78647827 26.23765427 -2.66670654 26.24483978 -3.5736084 26.25224304 C-9.77117452 26.22882548 -9.77117452 26.22882548 -12 24 C-11.44444444 19.44444444 -11.44444444 19.44444444 -10 18 C-7.13732433 17.92674832 -4.299281 17.90761795 -1.4375 17.9375 C-0.63119141 17.94201172 0.17511719 17.94652344 1.00585938 17.95117188 C3.00393756 17.96299482 5.00197783 17.98093086 7 18 C7 14.37 7 10.74 7 7 C6.071875 6.9175 5.14375 6.835 4.1875 6.75 C1 6 1 6 -0.875 3.9375 C-1.431875 2.9784375 -1.431875 2.9784375 -2 2 C-1.34 2 -0.68 2 0 2 C0 1.34 0 0.68 0 0 Z " fill="#273F65" transform="translate(661,542)"/>
<path d="M0 0 C3.39488422 2.05107588 4.80323081 3.70484621 7 7 C7.77286121 11.7180481 7.42364132 15.19654232 5.1875 19.4375 C2.79141179 22.24434619 1.19868423 23.84042284 -2.5234375 24.3359375 C-10.22742475 24.44147157 -10.22742475 24.44147157 -14.0625 22.25 C-17.45353804 18.31202035 -18.56147612 15.47032456 -18.4609375 10.1015625 C-17.60803882 6.21292275 -14.90176501 3.59354645 -12 1 C-8.30044901 -0.84977549 -4.03799166 -0.47056911 0 0 Z " fill="#1DCFEA" transform="translate(524,664)"/>
<path d="M0 0 C0.88816406 0.01353516 1.77632813 0.02707031 2.69140625 0.04101562 C4.87822578 0.07628691 7.06379966 0.12557248 9.25 0.1875 C9.25 0.5175 9.25 0.8475 9.25 1.1875 C7.38794922 1.22617187 7.38794922 1.22617187 5.48828125 1.265625 C3.84631972 1.32192082 2.204394 1.37926783 0.5625 1.4375 C-0.66243164 1.45876953 -0.66243164 1.45876953 -1.91210938 1.48046875 C-7.08053889 1.68971691 -10.01700247 2.27042961 -13.75 6.1875 C-14.08 6.8475 -14.41 7.5075 -14.75 8.1875 C-14.09 8.1875 -13.43 8.1875 -12.75 8.1875 C-12.75 9.1775 -12.75 10.1675 -12.75 11.1875 C-12.09 11.1875 -11.43 11.1875 -10.75 11.1875 C-9.47582146 25.84055322 -9.64931764 40.49097377 -9.75 55.1875 C-12.04633824 51.74299263 -12.29016485 49.24937717 -12.75 45.1875 C-13.74 45.6825 -13.74 45.6825 -14.75 46.1875 C-15.21898963 49.0034849 -15.21898963 49.0034849 -15.375 52.25 C-15.48714844 53.90708984 -15.48714844 53.90708984 -15.6015625 55.59765625 C-15.65054687 56.45230469 -15.69953125 57.30695312 -15.75 58.1875 C-17.83992175 55.05261738 -18.00612719 54.29516745 -18.04052734 50.71948242 C-18.05328705 49.81812057 -18.06604675 48.91675873 -18.07919312 47.98808289 C-18.08141876 47.01619522 -18.08364441 46.04430756 -18.0859375 45.04296875 C-18.0925943 44.04042557 -18.0992511 43.03788239 -18.10610962 42.00495911 C-18.11623904 39.88247513 -18.12092655 37.75995929 -18.12060547 35.63745117 C-18.12496937 32.39773662 -18.16126099 29.15939449 -18.19921875 25.91992188 C-18.20508875 23.85677549 -18.20905692 21.79362263 -18.2109375 19.73046875 C-18.22530853 18.76465378 -18.23967957 17.79883881 -18.25448608 16.80375671 C-18.2067254 9.73412072 -16.7683058 6.61543301 -12.109375 1.32421875 C-8.21946451 -0.54989376 -4.249172 -0.12239122 0 0 Z " fill="#272F5A" transform="translate(484.75,644.8125)"/>
<path d="M0 0 C-0.95519531 0.47308594 -1.91039062 0.94617188 -2.89453125 1.43359375 C-20.46825386 10.33794781 -32.21362629 21.87927082 -42 39 C-42.44730469 39.77988281 -42.89460938 40.55976563 -43.35546875 41.36328125 C-45.61905359 45.57175126 -46.43481804 49.29015035 -47 54 C-47.66 54.66 -48.32 55.32 -49 56 C-50.09192224 59.21954089 -50.75728069 62.55951894 -51.5 65.875 C-51.72067139 66.84775879 -51.94134277 67.82051758 -52.16870117 68.82275391 C-54.26513597 78.48431226 -55.2843555 88.15187719 -56 98 C-56.33 98 -56.66 98 -57 98 C-59.2840059 89.14947712 -57.62119113 80.57089742 -55.8125 71.8125 C-55.58546387 70.70479248 -55.35842773 69.59708496 -55.12451172 68.45581055 C-51.38578885 50.83058731 -44.9890747 34.66196884 -33 21 C-32.39671875 20.24203125 -31.7934375 19.4840625 -31.171875 18.703125 C-25.34353273 11.60136341 -9.95265373 -3.26673536 0 0 Z " fill="#03194B" transform="translate(323,405)"/>
<path d="M0 0 C2.09960508 0.01005605 4.19921485 0.01917723 6.29882812 0.02734375 C11.38683701 0.04913504 16.47461512 0.08351834 21.5625 0.125 C15.65760283 4.06159811 8.0687686 3.22982623 1.19140625 3.08203125 C-0.61912935 3.0596171 -2.42967707 3.03816457 -4.24023438 3.01757812 C-7.04388506 2.98081293 -9.84688983 2.93810093 -12.65014648 2.87817383 C-33.31753265 2.45863377 -58.09813646 5.46643332 -73.88671875 20.44921875 C-74.72847656 21.33222656 -75.57023437 22.21523438 -76.4375 23.125 C-77.39011515 24.07215272 -78.34595664 25.01606949 -79.3046875 25.95703125 C-84.38355369 30.98327103 -89.38189877 35.98735789 -93.9375 41.50390625 C-95.61405889 43.31581234 -97.42734202 44.69969402 -99.4375 46.125 C-98.12212703 42.42632749 -96.52270735 39.67608685 -94.0625 36.625 C-93.47726562 35.8928125 -92.89203125 35.160625 -92.2890625 34.40625 C-91.67804688 33.6534375 -91.06703125 32.900625 -90.4375 32.125 C-89.53064453 30.91263672 -89.53064453 30.91263672 -88.60546875 29.67578125 C-86.0525089 26.67202849 -83.21441253 24.23427058 -80.125 21.8125 C-79.52268555 21.33901123 -78.92037109 20.86552246 -78.29980469 20.37768555 C-62.24384919 8.125 -62.24384919 8.125 -55.4375 8.125 C-55.1075 7.465 -54.7775 6.805 -54.4375 6.125 C-52.05700085 5.34967203 -49.74103588 4.70821312 -47.3125 4.125 C-46.67957031 3.96 -46.04664063 3.795 -45.39453125 3.625 C-30.32242564 -0.09220524 -15.41221697 -0.12950416 0 0 Z " fill="#1EA8C4" transform="translate(503.4375,596.875)"/>
<path d="M0 0 C0.81615615 2.84635805 1.10783216 5.3180747 1.05004883 8.27441406 C1.03706253 9.10918274 1.02407623 9.94395142 1.01069641 10.80401611 C0.99298691 11.69884705 0.9752774 12.59367798 0.95703125 13.515625 C0.93463525 15.42577078 0.9131807 17.33592779 0.89257812 19.24609375 C0.85556447 22.24591605 0.81259585 25.24516161 0.75317383 28.24462891 C0.69838831 31.14754387 0.66950683 34.04981993 0.64453125 36.953125 C0.62074905 37.83985901 0.59696686 38.72659302 0.57246399 39.64019775 C0.54515179 46.19683971 1.82651179 51.73573137 6.51863098 56.56207275 C10.83286549 60.25606562 13.55303487 61.14756643 19.125 61.5625 C20.22070312 61.64628906 21.31640625 61.73007812 22.4453125 61.81640625 C23.70988281 61.90728516 23.70988281 61.90728516 25 62 C24.67 62.66 24.34 63.32 24 64 C20.9375 64.625 20.9375 64.625 18 65 C18 65.33 18 65.66 18 66 C21.465 66.495 21.465 66.495 25 67 C25 67.33 25 67.66 25 68 C10.13067361 68.81599962 10.13067361 68.81599962 4 64 C-0.25713941 60.02501018 -3.18916766 56.90162776 -4 51 C-3.67 51.66 -3.34 52.32 -3 53 C-2.01 52.505 -2.01 52.505 -1 52 C-1.00222061 51.37803741 -1.00444122 50.75607483 -1.00672913 50.11526489 C-1.02880126 43.65936862 -1.0439147 37.20348301 -1.05493164 30.74755859 C-1.05996974 28.33609583 -1.06680034 25.92463614 -1.07543945 23.51318359 C-1.08752787 20.05305221 -1.09323344 16.5929611 -1.09765625 13.1328125 C-1.10281754 12.04944611 -1.10797882 10.96607971 -1.11329651 9.84988403 C-1.11337204 8.8489975 -1.11344757 7.84811096 -1.11352539 6.81689453 C-1.115746 5.93309113 -1.11796661 5.04928772 -1.12025452 4.13870239 C-1 2 -1 2 0 0 Z " fill="#011D5E" transform="translate(336,479)"/>
<path d="M0 0 C0.99 0.33 1.98 0.66 3 1 C2.3503125 1.5878125 2.3503125 1.5878125 1.6875 2.1875 C-0.10040836 3.97396681 -0.10040836 3.97396681 -1.36328125 6.34375 C-2.99310787 8.98881469 -4.75172649 11.05290737 -6.875 13.3125 C-10.50355481 17.30257134 -13.29097984 21.34387161 -16 26 C-15.195625 25.731875 -14.39125 25.46375 -13.5625 25.1875 C-12.386875 24.795625 -11.21125 24.40375 -10 24 C-9.25363281 23.73574219 -8.50726563 23.47148437 -7.73828125 23.19921875 C-6.95839844 22.92722656 -6.17851562 22.65523438 -5.375 22.375 C-4.64023437 22.11460937 -3.90546875 21.85421875 -3.1484375 21.5859375 C-1 21 -1 21 3 21 C3 20.34 3 19.68 3 19 C13.10341946 17.0320296 22.7468639 16.77897431 33 17 C32.67 17.66 32.34 18.32 32 19 C28.94643318 19.38094002 25.94089991 19.65580821 22.875 19.875 C7.922183 21.16766251 -6.8699921 24.60828932 -19.625 32.875 C-20.73875 33.57625 -21.8525 34.2775 -23 35 C-23.66 34.67 -24.32 34.34 -25 34 C-17.80497497 21.88619421 -9.08043276 10.75136741 0 0 Z " fill="#022155" transform="translate(327,349)"/>
<path d="M0 0 C0.33 0 0.66 0 1 0 C1 15.84 1 31.68 1 48 C-2.375 43.5 -2.375 43.5 -2.34057617 39.69042969 C-2.34034958 38.84986023 -2.34012299 38.00929077 -2.33988953 37.14324951 C-2.32440567 36.24519592 -2.30892181 35.34714233 -2.29296875 34.421875 C-2.28872391 33.4953009 -2.28447906 32.56872681 -2.28010559 31.61407471 C-2.26333322 28.65908566 -2.22568355 25.70478239 -2.1875 22.75 C-2.1724513 20.74480153 -2.15876322 18.73959235 -2.14648438 16.734375 C-2.11343438 11.82265304 -2.06166182 6.91144274 -2 2 C-1.34 2 -0.68 2 0 2 C0 1.34 0 0.68 0 0 Z " fill="#2ADDEA" transform="translate(653,473)"/>
<path d="M0 0 C-3.19170321 2.7214281 -6.10599636 3.80927368 -10.125 4.9375 C-18.75525644 7.48318458 -26.68777304 10.74828714 -34.69140625 14.84375 C-37.73626855 16.36875718 -40.8675742 17.66581864 -44 19 C-46.11098973 20.05742447 -48.20996581 21.13371487 -50.30078125 22.23046875 C-52 23 -52 23 -54 23 C-54.33 23.99 -54.66 24.98 -55 26 C-55.99 25.01 -56.98 24.02 -58 23 C-44.66135439 15.68760726 -31.28362598 9.24632506 -17 4 C-15.76507813 3.54496094 -14.53015625 3.08992188 -13.2578125 2.62109375 C-8.64213076 1.00165529 -4.92938474 -0.21163727 0 0 Z " fill="#02396D" transform="translate(446,277)"/>
<path d="M0 0 C0.5878125 0.21785156 1.175625 0.43570313 1.78125 0.66015625 C1.21535156 0.99789062 0.64945313 1.335625 0.06640625 1.68359375 C-0.66707031 2.12960937 -1.40054687 2.575625 -2.15625 3.03515625 C-3.25259766 3.69644531 -3.25259766 3.69644531 -4.37109375 4.37109375 C-6.35647272 5.53755465 -6.35647272 5.53755465 -7.21875 7.66015625 C-6.22875 7.00015625 -5.23875 6.34015625 -4.21875 5.66015625 C-3.22875 5.99015625 -2.23875 6.32015625 -1.21875 6.66015625 C-0.3525 6.19609375 -0.3525 6.19609375 0.53125 5.72265625 C3.64903843 4.25036727 6.38114503 4.52938298 9.78125 4.66015625 C9.78125 4.99015625 9.78125 5.32015625 9.78125 5.66015625 C8.585 5.88703125 7.38875 6.11390625 6.15625 6.34765625 C1.58967357 7.47510585 -0.87148903 9.39453579 -4.21875 12.66015625 C-6.23829959 16.69925543 -5.63381087 22.41497363 -4.21875 26.66015625 C-6.26094706 24.96836297 -7.13668306 24.02287959 -7.73046875 21.3984375 C-7.81748047 20.19767578 -7.81748047 20.19767578 -7.90625 18.97265625 C-7.97199219 18.16441406 -8.03773438 17.35617187 -8.10546875 16.5234375 C-8.16154297 15.60111328 -8.16154297 15.60111328 -8.21875 14.66015625 C-11.34481964 16.26496409 -11.34481964 16.26496409 -11.73046875 18.60546875 C-11.78847656 19.32476563 -11.84648437 20.0440625 -11.90625 20.78515625 C-12.009375 22.06390625 -12.1125 23.34265625 -12.21875 24.66015625 C-12.54875 24.66015625 -12.87875 24.66015625 -13.21875 24.66015625 C-13.84009891 13.02712385 -13.84009891 13.02712385 -11.65625 8.22265625 C-3.34704354 -0.51266336 -3.34704354 -0.51266336 0 0 Z " fill="#282B54" transform="translate(512.21875,657.33984375)"/>
<path d="M0 0 C-0.33 0.66 -0.66 1.32 -1 2 C-3.44131474 2.4919067 -5.78196234 2.85058557 -8.25 3.125 C-8.98017334 3.20919189 -9.71034668 3.29338379 -10.46264648 3.38012695 C-17.00656282 4.08516411 -23.4204446 4.22020824 -30 4 C-30.91426758 3.97534668 -31.82853516 3.95069336 -32.77050781 3.92529297 C-35.91006265 3.83822132 -39.04863992 3.73416726 -42.1875 3.625 C-43.21689697 3.5943042 -44.24629395 3.5636084 -45.30688477 3.53198242 C-46.27166748 3.49306885 -47.2364502 3.45415527 -48.23046875 3.4140625 C-49.10082764 3.3826416 -49.97118652 3.3512207 -50.86791992 3.31884766 C-53 3 -53 3 -55 1 C-49.25664119 0.85552265 -43.51323421 0.71319946 -37.76977539 0.57275391 C-35.82151904 0.52482355 -33.87327634 0.47633477 -31.92504883 0.42724609 C-21.28145463 0.15944834 -10.6477608 -0.09011858 0 0 Z " fill="#0A3F6F" transform="translate(562,440)"/>
<path d="M0 0 C0.66 0.66 1.32 1.32 2 2 C0.76765625 2.23074219 -0.4646875 2.46148437 -1.734375 2.69921875 C-19.1458705 6.07754232 -34.85130383 11.35863126 -47 25 C-47.33 24.01 -47.66 23.02 -48 22 C-40.14216707 10.2132506 -23.17054593 4.0754441 -10 1 C-9.27296875 0.80664062 -8.5459375 0.61328125 -7.796875 0.4140625 C-5.14383404 -0.19729042 -2.70774579 -0.17659212 0 0 Z " fill="#053568" transform="translate(507,441)"/>
<path d="M0 0 C0.84755859 0.00966797 1.69511719 0.01933594 2.56835938 0.02929688 C3.44943359 0.05443359 4.33050781 0.07957031 5.23828125 0.10546875 C6.13095703 0.11900391 7.02363281 0.13253906 7.94335938 0.14648438 C10.14644291 0.18182796 12.34830707 0.23116382 14.55078125 0.29296875 C14.55078125 0.62296875 14.55078125 0.95296875 14.55078125 1.29296875 C13.34679687 1.34195312 12.1428125 1.3909375 10.90234375 1.44140625 C9.32679927 1.51643218 7.75127959 1.59198008 6.17578125 1.66796875 C5.38171875 1.69890625 4.58765625 1.72984375 3.76953125 1.76171875 C-0.8158925 1.81113296 -0.8158925 1.81113296 -4.44921875 4.29296875 C-4.74115621 6.43516757 -4.74115621 6.43516757 -4.67626953 8.92626953 C-4.67611847 9.88711456 -4.67596741 10.84795959 -4.67581177 11.83792114 C-4.6654892 12.87753998 -4.65516663 13.91715881 -4.64453125 14.98828125 C-4.64170135 16.05086151 -4.63887146 17.11344177 -4.63595581 18.20822144 C-4.62473514 21.61158374 -4.59962712 25.01468561 -4.57421875 28.41796875 C-4.56419139 30.72135037 -4.55506512 33.02473611 -4.546875 35.328125 C-4.52478968 40.9831622 -4.49129364 46.63804688 -4.44921875 52.29296875 C-5.43921875 51.63296875 -6.42921875 50.97296875 -7.44921875 50.29296875 C-7.83016968 48.28834534 -7.83016968 48.28834534 -7.83740234 45.79907227 C-7.84685883 44.86793106 -7.85631531 43.93678986 -7.86605835 42.97743225 C-7.85998566 41.96909836 -7.85391296 40.96076447 -7.84765625 39.921875 C-7.85052643 38.8886058 -7.85339661 37.85533661 -7.85635376 36.79075623 C-7.85839788 34.60260471 -7.8528438 32.41443506 -7.84033203 30.22631836 C-7.82430001 26.87246874 -7.8401611 23.51982729 -7.859375 20.16601562 C-7.85739231 18.04296608 -7.85354811 15.91991729 -7.84765625 13.796875 C-7.85372894 12.79056534 -7.85980164 11.78425568 -7.86605835 10.74745178 C-7.85660187 9.81315842 -7.84714539 8.87886505 -7.83740234 7.91625977 C-7.83501556 7.09400406 -7.83262878 6.27174835 -7.83016968 5.42457581 C-7.01638298 0.87104061 -4.25691358 -0.08570967 0 0 Z " fill="#08417D" transform="translate(474.44921875,333.70703125)"/>
<path d="M0 0 C3.0951908 1.26100366 5.07620132 2.96767254 7.37109375 5.36328125 C9.5713822 7.57412264 11.87498278 9.65708874 14.1875 11.75 C15.47720703 12.91789063 15.47720703 12.91789063 16.79296875 14.109375 C18.84981229 16.02584478 18.84981229 16.02584478 21 17 C21 17.66 21 18.32 21 19 C21.51046875 19.22429688 22.0209375 19.44859375 22.546875 19.6796875 C25.99598163 21.53605381 29.08342773 23.82730426 32.25 26.125 C33.22453125 26.82689453 33.22453125 26.82689453 34.21875 27.54296875 C35.81435483 28.69274282 37.40743025 29.84602566 39 31 C37.19165039 31.62451172 37.19165039 31.62451172 35 32 C32.62822487 30.45910151 30.58644461 28.93533192 28.4375 27.125 C27.82632324 26.62556885 27.21514648 26.1261377 26.58544922 25.61157227 C25.3296813 24.5838142 24.07805667 23.55097343 22.83056641 22.51318359 C21.11638064 21.09620261 19.38318729 19.70890436 17.63671875 18.33203125 C11.94977446 13.81050486 11.94977446 13.81050486 10 12 C10 11.34 10 10.68 10 10 C9.195625 9.690625 9.195625 9.690625 8.375 9.375 C5.08021991 7.46749574 2.40636372 4.95180616 0 2 C0 1.34 0 0.68 0 0 Z " fill="#041C4D" transform="translate(331,690)"/>
<path d="M0 0 C0.33 0.99 0.66 1.98 1 3 C0.25234375 3.80824219 -0.4953125 4.61648438 -1.265625 5.44921875 C-2.26050237 6.52856684 -3.25528923 7.60799837 -4.25 8.6875 C-4.74113281 9.21794922 -5.23226562 9.74839844 -5.73828125 10.29492188 C-7.95407546 12.70275158 -10.0834528 15.10566575 -12.11328125 17.67578125 C-13.91772552 19.89864738 -15.7495652 21.66300128 -17.9375 23.5 C-20.37568047 25.56272782 -22.61843149 27.62425801 -24.75 30 C-25.4925 30.66 -26.235 31.32 -27 32 C-29.140625 31.625 -29.140625 31.625 -31 31 C-30.59273682 30.62302979 -30.18547363 30.24605957 -29.76586914 29.85766602 C-19.02092679 19.90221418 -19.02092679 19.90221418 -8.63671875 9.57421875 C-7 8 -7 8 -5 7 C-4.505 6.01 -4.01 5.02 -3.5 4 C-2 1 -2 1 0 0 Z " fill="#33E1E3" transform="translate(707,675)"/>
<path d="M0 0 C6.27 0 12.54 0 19 0 C19 0.33 19 0.66 19 1 C15.04 1 11.08 1 7 1 C7 1.66 7 2.32 7 3 C18.88 3 30.76 3 43 3 C43 2.34 43 1.68 43 1 C37.72 1 32.44 1 27 1 C27 0.67 27 0.34 27 0 C32.61 0 38.22 0 44 0 C44 1.32 44 2.64 44 4 C29.48 4 14.96 4 0 4 C0 2.68 0 1.36 0 0 Z " fill="#295779" transform="translate(649,562)"/>
<path d="M0 0 C0.62326172 0.18643066 1.24652344 0.37286133 1.88867188 0.56494141 C1.03144531 1.41056641 0.17421875 2.25619141 -0.70898438 3.12744141 C-8.9649213 11.2849319 -8.9649213 11.2849319 -16.64648438 19.97900391 C-18.30878389 21.77872018 -20.11701406 23.14962175 -22.11132812 24.56494141 C-20.79595516 20.8662689 -19.19653548 18.11602825 -16.73632812 15.06494141 C-16.10984375 14.28505859 -15.48335938 13.50517578 -14.83789062 12.70166016 C-14.268125 11.99654297 -13.69835937 11.29142578 -13.11132812 10.56494141 C-12.12132812 9.23462891 -12.12132812 9.23462891 -11.11132812 7.87744141 C-3.64824059 -0.75175355 -3.64824059 -0.75175355 0 0 Z " fill="#1CB3DB" transform="translate(426.111328125,618.43505859375)"/>
<path d="M0 0 C0.66 0.33 1.32 0.66 2 1 C-0.88682013 5.72388749 -3.98194447 7.09438726 -8.96875 8.8984375 C-11.82012029 9.93463134 -14.60499907 11.08558099 -17.39941406 12.26513672 C-29.40398366 17.2685727 -40.98498953 19.43412998 -54 20 C-54.33 19.01 -54.66 18.02 -55 17 C-53.824375 17.04125 -52.64875 17.0825 -51.4375 17.125 C-34.86833899 17.02144274 -12.3558736 12.3558736 0 0 Z " fill="#23BCD1" transform="translate(620,447)"/>
<path d="M0 0 C3.53571429 0.53571429 3.53571429 0.53571429 5 2 C5.07319621 4.69654854 5.09242537 7.36691458 5.0625 10.0625 C5.05798828 10.82111328 5.05347656 11.57972656 5.04882812 12.36132812 C5.0370068 14.24091871 5.01907078 16.12046899 5 18 C3.0549 15.08235 2.54723683 13.37462715 2 10 C1.67 10 1.34 10 1 10 C0.67 13.3 0.34 16.6 0 20 C-2.42457025 16.36314463 -2.29768407 13.63767221 -2.25 9.4375 C-2.25773438 8.75236328 -2.26546875 8.06722656 -2.2734375 7.36132812 C-2.2533867 2.2533867 -2.2533867 2.2533867 0 0 Z " fill="#27325A" transform="translate(641,505)"/>
<path d="M0 0 C0.08636719 1.10214844 0.17273438 2.20429687 0.26171875 3.33984375 C1.2739563 14.73510795 2.75882639 27.03420598 8.21875 37.2890625 C9 39 9 39 8 42 C1.83846325 30.3082315 -1.84223907 17.26526528 -1 4 C-3.31 5.98 -5.62 7.96 -8 10 C-8.66 9.67 -9.32 9.34 -10 9 C-8.16987276 6.25480914 -3.60718983 0 0 0 Z " fill="#22BACD" transform="translate(568,571)"/>
<path d="M0 0 C8.64888415 5.10062399 15.0998209 12.30613385 20 21 C19.01 21.33 18.02 21.66 17 22 C17 21.01 17 20.02 17 19 C15.68 18.34 14.36 17.68 13 17 C13 16.34 13 15.68 13 15 C11.28340568 13.64196324 9.46815118 12.50169742 7.62890625 11.31640625 C6 10 6 10 5 7 C4.154375 6.154375 3.30875 5.30875 2.4375 4.4375 C1.633125 3.633125 0.82875 2.82875 0 2 C0 1.34 0 0.68 0 0 Z " fill="#076696" transform="translate(602,290)"/>
<path d="M0 0 C0.33 0 0.66 0 1 0 C1.04898438 0.89203125 1.09796875 1.7840625 1.1484375 2.703125 C1.22320313 3.87359375 1.29796875 5.0440625 1.375 6.25 C1.47941406 7.99023438 1.47941406 7.99023438 1.5859375 9.765625 C1.9685867 12.75462062 2.57130248 14.41912707 4 17 C4.125 19.75 4.125 19.75 4 22 C3.34 22 2.68 22 2 22 C1.67 22.66 1.34 23.32 1 24 C0.71125 23.195625 0.4225 22.39125 0.125 21.5625 C-0.73262568 18.8673532 -0.73262568 18.8673532 -3 18 C-2.67 14.37 -2.34 10.74 -2 7 C-1.67 7 -1.34 7 -1 7 C-0.67 4.69 -0.34 2.38 0 0 Z " fill="#284F73" transform="translate(643,507)"/>
<path d="M0 0 C0.66 0.99 1.32 1.98 2 3 C1.01 4.485 1.01 4.485 0 6 C-0.66 6 -1.32 6 -2 6 C-2.66 7.65 -3.32 9.3 -4 11 C-5.32 11 -6.64 11 -8 11 C-10.00812926 11.98357352 -12.00854609 12.98308736 -14 14 C-14.99 14 -15.98 14 -17 14 C-17 13.34 -17 12.68 -17 12 C-14.91706723 10.8742531 -12.83367092 9.74937917 -10.75 8.625 C-9.58984375 7.99851562 -8.4296875 7.37203125 -7.234375 6.7265625 C-4.83763374 5.44714265 -2.43911709 4.19540887 0 3 C0 2.01 0 1.02 0 0 Z " fill="#3AEDEC" transform="translate(726,650)"/>
<path d="M0 0 C0.33 0 0.66 0 1 0 C0.52877252 6.9113364 -2.20636006 12.72204161 -5 19 C-5.66 19 -6.32 19 -7 19 C-7.33 21.64 -7.66 24.28 -8 27 C-8.33 27 -8.66 27 -9 27 C-8.66897098 17.56567301 -5.24252363 7.86378544 0 0 Z " fill="#1BA9D2" transform="translate(403,643)"/>
<path d="M0 0 C1.32 0.66 2.64 1.32 4 2 C4 2.66 4 3.32 4 4 C4.5775 4.268125 5.155 4.53625 5.75 4.8125 C8.0325868 6.01719859 9.9737942 7.40798115 12 9 C7.59085217 10.10228696 3.51617599 10.07654536 -1 10 C-0.835 9.278125 -0.67 8.55625 -0.5 7.8125 C-0.02412881 5.13572455 0.077443 2.71050513 0 0 Z " fill="#043468" transform="translate(448,567)"/>
<path d="M0 0 C1.21389092 3.64167276 0.37726114 4.81546134 -1.24975586 8.14233398 C-1.57983643 8.79661377 -1.90991699 9.45089355 -2.25 10.125 C-4.95074979 15.66484533 -7.23408842 21.07900235 -9 27 C-9.66 27 -10.32 27 -11 27 C-9.63585933 17.12480777 -5.60855839 8.17247079 0 0 Z " fill="#032657" transform="translate(375,624)"/>
<path d="M0 0 C2.50719458 2.32649587 4.32183601 4.82681521 6.1875 7.6875 C6.71730469 8.49574219 7.24710937 9.30398438 7.79296875 10.13671875 C8.39044922 11.05904297 8.39044922 11.05904297 9 12 C8.67 12.66 8.34 13.32 8 14 C4.37 11.36 0.74 8.72 -3 6 C-2.34 5.67 -1.68 5.34 -1 5 C-0.34444881 2.47266765 -0.34444881 2.47266765 0 0 Z " fill="#062C5D" transform="translate(371,717)"/>
<path d="M0 0 C0.95261719 0.0721875 1.90523437 0.144375 2.88671875 0.21875 C4.76810547 0.35796875 4.76810547 0.35796875 6.6875 0.5 C7.92886719 0.5928125 9.17023437 0.685625 10.44921875 0.78125 C13.31499329 0.95779937 16.13099957 1.04388528 19 1 C17 3 17 3 14.8359375 3.1953125 C13.61777344 3.16050781 13.61777344 3.16050781 12.375 3.125 C11.55773437 3.10695313 10.74046875 3.08890625 9.8984375 3.0703125 C9.27195312 3.04710937 8.64546875 3.02390625 8 3 C8 3.66 8 4.32 8 5 C5.69 5.33 3.38 5.66 1 6 C0.01 4.68 -0.98 3.36 -2 2 C-1.34 2 -0.68 2 0 2 C0 1.34 0 0.68 0 0 Z " fill="#2B5276" transform="translate(661,542)"/>
<path d="M0 0 C1.485 0.99 1.485 0.99 3 2 C3.36328125 4.75 3.36328125 4.75 3.3125 8 C3.30863281 9.0725 3.30476562 10.145 3.30078125 11.25 C3 14 3 14 1 16 C-1 14 -1 14 -1.23046875 10.99609375 C-1.21628906 9.82175781 -1.20210937 8.64742187 -1.1875 7.4375 C-1.17783203 5.67212891 -1.17783203 5.67212891 -1.16796875 3.87109375 C-1 1 -1 1 0 0 Z " fill="#2C5477" transform="translate(700,506)"/>
<path d="M0 0 C0.66 0.33 1.32 0.66 2 1 C0.47810642 6.78319559 -2.29998072 12.29973627 -6 17 C-8.1953125 17.79296875 -8.1953125 17.79296875 -10 18 C-8.66392467 15.22269525 -7.17801789 12.64603364 -5.5 10.0625 C-3.63454325 7.1216623 -2.1940329 4.28359046 -1 1 C-0.67 0.67 -0.34 0.34 0 0 Z " fill="#086394" transform="translate(626,388)"/>
<path d="M0 0 C0.66 0 1.32 0 2 0 C2.81942948 2.51876293 3.63065069 5.0397067 4.4375 7.5625 C4.66759766 8.26697266 4.89769531 8.97144531 5.13476562 9.69726562 C6.54653678 14.13718362 7.47065115 18.36971871 8 23 C5.141173 19.63815359 3.78381184 16.20249759 2.3125 12.0625 C1.65701172 10.25458984 1.65701172 10.25458984 0.98828125 8.41015625 C0.10660472 5.3678495 -0.21979066 3.13053177 0 0 Z " fill="#042255" transform="translate(363,696)"/>
<path d="M0 0 C3.56425699 1.31447775 6.59724634 2.88405795 9.75 5 C10.52859375 5.515625 11.3071875 6.03125 12.109375 6.5625 C14 8 14 8 15 10 C12.69 9.67 10.38 9.34 8 9 C7.67 9.66 7.34 10.32 7 11 C5.82750647 9.54634731 4.66216184 8.08692581 3.5 6.625 C2.52546875 5.40683594 2.52546875 5.40683594 1.53125 4.1640625 C0 2 0 2 0 0 Z " fill="#28C2D2" transform="translate(646,304)"/>
<path d="M0 0 C-8.66891797 2.52446512 -16.98741574 3.61336547 -26 4 C-26.33 3.01 -26.66 2.02 -27 1 C-25.824375 1.04125 -24.64875 1.0825 -23.4375 1.125 C-17.63022373 1.15278601 -11.9805741 0.22427054 -6.2578125 -0.66015625 C-3 -1 -3 -1 0 0 Z " fill="#23B0C8" transform="translate(592,463)"/>
<path d="M0 0 C3 1 3 1 3 1 Z M-8 1 C-5.36 1 -2.72 1 0 1 C0 1.33 0 1.66 0 2 C-1.65 2 -3.3 2 -5 2 C-5 2.66 -5 3.32 -5 4 C-2.36 4 0.28 4 3 4 C3 4.33 3 4.66 3 5 C-4.59 5 -12.18 5 -20 5 C-20 4.67 -20 4.34 -20 4 C-14.06 3.505 -14.06 3.505 -8 3 C-8 2.34 -8 1.68 -8 1 Z " fill="#1FC1E2" transform="translate(523,697)"/>
<path d="M0 0 C0.67095703 0.58007812 0.67095703 0.58007812 1.35546875 1.171875 C1.96003906 1.69265625 2.56460938 2.2134375 3.1875 2.75 C3.82300781 3.29914063 4.45851563 3.84828125 5.11328125 4.4140625 C6.65368747 5.70889671 8.25673724 6.92889274 9.875 8.125 C12.20137477 10.17768362 12.62449549 10.99596393 13 14 C13.185625 14.7425 13.37125 15.485 13.5625 16.25 C13.706875 16.8275 13.85125 17.405 14 18 C11.20798554 15.30616627 8.77683352 12.53044432 6.4375 9.4375 C4.79699687 7.27086669 3.24274555 5.23389834 1.28515625 3.34765625 C0 2 0 2 0 0 Z " fill="#23BBD3" transform="translate(568,467)"/>
<path d="M0 0 C5.02180245 1.15887749 7.46552204 2.35150663 11 6 C12.051875 6.350625 13.10375 6.70125 14.1875 7.0625 C15.5796875 7.5265625 15.5796875 7.5265625 17 8 C17.33 8.99 17.66 9.98 18 11 C13.59964093 9.6961899 10.03959815 7.98726447 6.1875 5.5 C5.23230469 4.8915625 4.27710938 4.283125 3.29296875 3.65625 C1 2 1 2 0 0 Z " fill="#1BABCE" transform="translate(425,748)"/>
<path d="M0 0 C0 0.99 0 1.98 0 3 C-0.66 3 -1.32 3 -2 3 C-2 5.64 -2 8.28 -2 11 C-2.99 11.33 -3.98 11.66 -5 12 C-5 8.37 -5 4.74 -5 1 C-3 0 -3 0 0 0 Z " fill="#2CE0E9" transform="translate(680,548)"/>
<path d="M0 0 C0.99 0.495 0.99 0.495 2 1 C2 1.66 2 2.32 2 3 C2.66 3 3.32 3 4 3 C4 5.97 4 8.94 4 12 C2.66666667 12 1.33333333 12 0 12 C0 8.04 0 4.08 0 0 Z " fill="#2C5377" transform="translate(670,549)"/>
<path d="M0 0 C5.26170694 1.41167747 8.72171358 3.74850232 13 7 C12.01 8.485 12.01 8.485 11 10 C10.67 9.01 10.34 8.02 10 7 C9.01 7 8.02 7 7 7 C7 6.34 7 5.68 7 5 C6.236875 4.896875 5.47375 4.79375 4.6875 4.6875 C1.82940576 3.95635961 0.84257115 3.23048087 -1 1 C-0.67 0.67 -0.34 0.34 0 0 Z " fill="#056092" transform="translate(586,280)"/>
<path d="M0 0 C0.33 0.66 0.66 1.32 1 2 C-1.43971376 7.91340145 -5.11670318 14.05835159 -11 17 C-9.24933204 13.11390189 -6.81675994 9.72187742 -4.375 6.25 C-3.95476563 5.64800781 -3.53453125 5.04601562 -3.1015625 4.42578125 C-2.07006863 2.94886957 -1.03535421 1.47420806 0 0 Z " fill="#26C3D3" transform="translate(650,414)"/>
<path d="M0 0 C-6.14778871 1.6277833 -11.64012196 2.20190089 -18 2 C-18 2.66 -18 3.32 -18 4 C-19.32 3.34 -20.64 2.68 -22 2 C-22 1.67 -22 1.34 -22 1 C-19.08418447 0.63702296 -16.16774334 0.28431765 -13.25 -0.0625 C-12.0125 -0.2181543 -12.0125 -0.2181543 -10.75 -0.37695312 C-9.95078125 -0.47041016 -9.1515625 -0.56386719 -8.328125 -0.66015625 C-7.5949707 -0.74918213 -6.86181641 -0.83820801 -6.10644531 -0.92993164 C-3.87729995 -1.00408147 -2.12666985 -0.64094299 0 0 Z " fill="#26DBF1" transform="translate(590,465)"/>
<path d="M0 0 C0.33 0.66 0.66 1.32 1 2 C0.690625 2.53625 0.38125 3.0725 0.0625 3.625 C-1.50799373 7.13551539 -1.12756928 10.17292161 -1 14 C-1.99 14.495 -1.99 14.495 -3 15 C-4.33534095 9.6586362 -3.65480178 6.13859499 -2 1 C-1.34 0.67 -0.68 0.34 0 0 Z " fill="#1CBDEA" transform="translate(398,661)"/>
<path d="M0 0 C0.33 0 0.66 0 1 0 C0.67 6.27 0.34 12.54 0 19 C-0.33 19 -0.66 19 -1 19 C-1.82810601 12.18491136 -2.50413785 6.48129797 0 0 Z " fill="#062C5B" transform="translate(363,652)"/>
<path d="M0 0 C1.32 0.66 2.64 1.32 4 2 C0.76527494 4.15648338 -2.37151078 5.61457684 -6 7 C-6.66 6.67 -7.32 6.34 -8 6 C-5.36 4.02 -2.72 2.04 0 0 Z " fill="#23C5DB" transform="translate(556,581)"/>
<path d="M0 0 C3.93673644 1.31224548 6.22719294 2.91910327 9 6 C5.83214131 6 4.71896141 5.44444825 2 4 C1.01 3.67 0.02 3.34 -1 3 C-0.67 2.01 -0.34 1.02 0 0 Z " fill="#013871" transform="translate(391,409)"/>
<path d="M0 0 C0.99 0.33 1.98 0.66 3 1 C1.71372289 2.17260611 0.42080217 3.3379283 -0.875 4.5 C-1.59429687 5.1496875 -2.31359375 5.799375 -3.0546875 6.46875 C-5 8 -5 8 -7 8 C-5.51218185 4.21282653 -3.38011591 2.22592999 0 0 Z " fill="#446081" transform="translate(346,471)"/>
<path d="M0 0 C0.66 0.99 1.32 1.98 2 3 C-0.31 4.98 -2.62 6.96 -5 9 C-3.7508258 5.54074837 -2.32472205 2.85306797 0 0 Z " fill="#1BAAD3" transform="translate(409,634)"/>
<path d="M0 0 C2.5654594 2.5654594 2.54046087 4.47686668 3 8 C2.01 8.33 1.02 8.66 0 9 C-0.87890625 2.84765625 -0.87890625 2.84765625 -1 1 C-0.67 0.67 -0.34 0.34 0 0 Z " fill="#07699B" transform="translate(628,324)"/>
<path d="M0 0 C0.66 0.66 1.32 1.32 2 2 C0.75579353 2.5345256 -0.49570936 3.05208611 -1.75 3.5625 C-2.44609375 3.85253906 -3.1421875 4.14257812 -3.859375 4.44140625 C-6.30012784 5.07831803 -7.6403655 4.80248831 -10 4 C-9.01 4 -8.02 4 -7 4 C-7 3.34 -7 2.68 -7 2 C-4.69 1.34 -2.38 0.68 0 0 Z " fill="#34EAEA" transform="translate(703,664)"/>
<path d="M0 0 C0.66 0.99 1.32 1.98 2 3 C1.01 4.485 1.01 4.485 0 6 C-0.66 6 -1.32 6 -2 6 C-2.33 6.99 -2.66 7.98 -3 9 C-4.32 8.34 -5.64 7.68 -7 7 C-2.25 3 -2.25 3 0 3 C0 2.01 0 1.02 0 0 Z " fill="#35DAD6" transform="translate(726,650)"/>
<path d="M0 0 C0.66 0.99 1.32 1.98 2 3 C-1.47325181 4.1577506 -4.36067448 4.06866652 -8 4 C-8 3.01 -8 2.02 -8 1 C-5.36 0.67 -2.72 0.34 0 0 Z " fill="#2CE0EB" transform="translate(677,531)"/>
<path d="M0 0 C3.08236365 2.78407039 3.95206337 3.80825346 5 8 C2.36 6.35 -0.28 4.7 -3 3 C-2.01 2.67 -1.02 2.34 0 2 C0 1.34 0 0.68 0 0 Z " fill="#0B3C67" transform="translate(375,723)"/>
<path d="M0 0 C2.97 0.495 2.97 0.495 6 1 C5.67 1.66 5.34 2.32 5 3 C1.04 3 -2.92 3 -7 3 C-7 2.67 -7 2.34 -7 2 C-4.69 2 -2.38 2 0 2 C0 1.34 0 0.68 0 0 Z " fill="#0F507B" transform="translate(454,574)"/>
<path d="M0 0 C2.97069541 2.54631035 4.4775751 5.42230149 6 9 C5.67 9.66 5.34 10.32 5 11 C1.19015156 8.22920113 0.93159248 4.37131855 0 0 Z " fill="#33DCDD" transform="translate(729,388)"/>
<path d="M0 0 C2.29633824 3.44450737 2.54016485 5.93812283 3 10 C2.01 10 1.02 10 0 10 C0 6.7 0 3.4 0 0 Z " fill="#2A446D" transform="translate(536,671)"/>
<path d="M0 0 C0.66 0.99 1.32 1.98 2 3 C0.35 4.32 -1.3 5.64 -3 7 C-3 3 -3 3 -1.5 1.25 C-1.005 0.8375 -0.51 0.425 0 0 Z " fill="#066396" transform="translate(612,410)"/>
<path d="M0 0 C-1 2 -2 4 -3 6 C-3.66 6 -4.32 6 -5 6 C-5 4.35 -5 2.7 -5 1 C-2 0 -2 0 0 0 Z " fill="#03285A" transform="translate(389,607)"/>
<path d="M0 0 C0.99 0 1.98 0 3 0 C3.99 1.98 4.98 3.96 6 6 C4.68 6 3.36 6 2 6 C1.34 4.02 0.68 2.04 0 0 Z " fill="#2BDBE8" transform="translate(652,520)"/>
<path d="M0 0 C0.66 0.33 1.32 0.66 2 1 C0.72485508 3.55028983 -0.40341297 3.93081711 -3 5 C-3.99 5 -4.98 5 -6 5 C-6 4.34 -6 3.68 -6 3 C-4.03533587 1.93224776 -2.03144641 0.93446535 0 0 Z " fill="#35E5E6" transform="translate(715,659)"/>
<path d="M0 0 C0.66 0 1.32 0 2 0 C1.34 3.63 0.68 7.26 0 11 C-0.33 11 -0.66 11 -1 11 C-2.25 3.375 -2.25 3.375 0 0 Z " fill="#26E2EE" transform="translate(639,504)"/>
<path d="M0 0 C4 1 4 1 4 1 Z " fill="#3BEEEA" transform="translate(687,666)"/>
<path d="M0 0 C3 1 3 1 3 1 Z " fill="#3CEFED" transform="translate(697,664)"/>
<path d="M0 0 C3 1 3 1 3 1 Z " fill="#35E3E6" transform="translate(656,639)"/>
<path d="" fill="#3EE9E2" transform="translate(0,0)"/>
<path d="M0 0 C2 1 2 1 2 1 Z " fill="#23B4C9" transform="translate(484,772)"/>
<path d="M0 0 C2 1 2 1 2 1 Z " fill="#2AC4CE" transform="translate(567,767)"/>
<path d="M0 0 C2 1 2 1 2 1 Z " fill="#21A8C2" transform="translate(433,757)"/>
<path d="" fill="#209CC1" transform="translate(0,0)"/>
<path d="M0 0 C2 1 2 1 2 1 Z " fill="#0F4770" transform="translate(369,725)"/>
<path d="M0 0 C2 1 2 1 2 1 Z " fill="#2EE5E7" transform="translate(646,665)"/>
<path d="M0 0 C2 1 2 1 2 1 Z " fill="#3AECE8" transform="translate(692,639)"/>
<path d="" fill="#2ACCDE" transform="translate(0,0)"/>
<path d="M0 0 C2 1 2 1 2 1 Z " fill="#2BC8DA" transform="translate(579,486)"/>
<path d="M0 0 C2 1 2 1 2 1 Z " fill="#29C8DA" transform="translate(601,456)"/>
<path d="" fill="#024177" transform="translate(0,0)"/>
<path d="" fill="#03477C" transform="translate(0,0)"/>
<path d="M0 0 C2 1 2 1 2 1 Z " fill="#024273" transform="translate(378,304)"/>
<path d="M0 0 C2 1 2 1 2 1 Z " fill="#075D8B" transform="translate(518,264)"/>
<path d="" fill="#24BECF" transform="translate(0,0)"/>
<path d="" fill="#29C2CB" transform="translate(0,0)"/>
<path d="" fill="#23B7CB" transform="translate(0,0)"/>
<path d="" fill="#23B3C8" transform="translate(0,0)"/>
<path d="" fill="#24B3C8" transform="translate(0,0)"/>
<path d="" fill="#23ACC5" transform="translate(0,0)"/>
<path d="" fill="#21A5C1" transform="translate(0,0)"/>
<path d="" fill="#2AC8CF" transform="translate(0,0)"/>
<path d="" fill="#20A9C6" transform="translate(0,0)"/>
<path d="" fill="#30CAD2" transform="translate(0,0)"/>
<path d="" fill="#22A7C0" transform="translate(0,0)"/>
<path d="" fill="#2DD0D3" transform="translate(0,0)"/>
<path d="" fill="#2ECCD3" transform="translate(0,0)"/>
<path d="" fill="#2FD2D7" transform="translate(0,0)"/>
<path d="" fill="#2ED0D5" transform="translate(0,0)"/>
<path d="" fill="#1E9FC3" transform="translate(0,0)"/>
<path d="" fill="#124C7B" transform="translate(0,0)"/>
<path d="" fill="#0F4672" transform="translate(0,0)"/>
<path d="" fill="#124874" transform="translate(0,0)"/>
<path d="" fill="#209BBE" transform="translate(0,0)"/>
<path d="" fill="#209DBE" transform="translate(0,0)"/>
<path d="" fill="#2198BD" transform="translate(0,0)"/>
<path d="" fill="#30D9DB" transform="translate(0,0)"/>
<path d="" fill="#2099BD" transform="translate(0,0)"/>
<path d="" fill="#1D9BBF" transform="translate(0,0)"/>
<path d="" fill="#062F5D" transform="translate(0,0)"/>
<path d="" fill="#1C99C0" transform="translate(0,0)"/>
<path d="" fill="#0D497D" transform="translate(0,0)"/>
<path d="" fill="#022150" transform="translate(0,0)"/>
<path d="" fill="#3CEEEA" transform="translate(0,0)"/>
<path d="" fill="#37E9E8" transform="translate(0,0)"/>
<path d="" fill="#38E9E9" transform="translate(0,0)"/>
<path d="" fill="#24A2C6" transform="translate(0,0)"/>
<path d="" fill="#3AF1EC" transform="translate(0,0)"/>
<path d="" fill="#3EEEE9" transform="translate(0,0)"/>
<path d="" fill="#33E6E7" transform="translate(0,0)"/>
<path d="" fill="#31E1E3" transform="translate(0,0)"/>
<path d="" fill="#34E7EA" transform="translate(0,0)"/>
<path d="" fill="#0A4C7E" transform="translate(0,0)"/>
<path d="" fill="#1FA0C6" transform="translate(0,0)"/>
<path d="" fill="#3BDBD3" transform="translate(0,0)"/>
<path d="" fill="#3AE5E0" transform="translate(0,0)"/>
<path d="" fill="#3EEAE7" transform="translate(0,0)"/>
<path d="" fill="#3CD8D3" transform="translate(0,0)"/>
<path d="" fill="#001C4E" transform="translate(0,0)"/>
<path d="" fill="#30DCE4" transform="translate(0,0)"/>
<path d="" fill="#31DCE5" transform="translate(0,0)"/>
<path d="" fill="#34E2E6" transform="translate(0,0)"/>
<path d="" fill="#35E2E5" transform="translate(0,0)"/>
<path d="" fill="#33DFE2" transform="translate(0,0)"/>
<path d="" fill="#33D9E4" transform="translate(0,0)"/>
<path d="" fill="#0B4E81" transform="translate(0,0)"/>
<path d="" fill="#31DFE4" transform="translate(0,0)"/>
<path d="" fill="#42EBE5" transform="translate(0,0)"/>
<path d="" fill="#30D7E6" transform="translate(0,0)"/>
<path d="" fill="#031E4D" transform="translate(0,0)"/>
<path d="" fill="#084F83" transform="translate(0,0)"/>
<path d="" fill="#30D8E1" transform="translate(0,0)"/>
<path d="" fill="#30D4E1" transform="translate(0,0)"/>
<path d="" fill="#3CE4DE" transform="translate(0,0)"/>
<path d="" fill="#2DD9E0" transform="translate(0,0)"/>
<path d="" fill="#2ED7E2" transform="translate(0,0)"/>
<path d="" fill="#2FD7E1" transform="translate(0,0)"/>
<path d="" fill="#2CD5E3" transform="translate(0,0)"/>
<path d="" fill="#1BA1C4" transform="translate(0,0)"/>
<path d="" fill="#011D4C" transform="translate(0,0)"/>
<path d="" fill="#21AAC7" transform="translate(0,0)"/>
<path d="" fill="#29D5E2" transform="translate(0,0)"/>
<path d="" fill="#2DD3E2" transform="translate(0,0)"/>
<path d="" fill="#2CC9D9" transform="translate(0,0)"/>
<path d="" fill="#2ECFDC" transform="translate(0,0)"/>
<path d="" fill="#2BD0DE" transform="translate(0,0)"/>
<path d="" fill="#0E5F8D" transform="translate(0,0)"/>
<path d="" fill="#031D4C" transform="translate(0,0)"/>
<path d="" fill="#2BD1DC" transform="translate(0,0)"/>
<path d="" fill="#3FE6E2" transform="translate(0,0)"/>
<path d="" fill="#30D2E0" transform="translate(0,0)"/>
<path d="" fill="#2DCEDC" transform="translate(0,0)"/>
<path d="" fill="#04204F" transform="translate(0,0)"/>
<path d="" fill="#2FCFDD" transform="translate(0,0)"/>
<path d="" fill="#3FE6E1" transform="translate(0,0)"/>
<path d="" fill="#3FEAE3" transform="translate(0,0)"/>
<path d="" fill="#2CCFDD" transform="translate(0,0)"/>
<path d="" fill="#2AC5D8" transform="translate(0,0)"/>
<path d="" fill="#2CC9DA" transform="translate(0,0)"/>
<path d="" fill="#2CC8D7" transform="translate(0,0)"/>
<path d="" fill="#2BBFD3" transform="translate(0,0)"/>
<path d="" fill="#06497A" transform="translate(0,0)"/>
<path d="" fill="#022656" transform="translate(0,0)"/>
<path d="" fill="#2CC8DA" transform="translate(0,0)"/>
<path d="" fill="#2EC8D8" transform="translate(0,0)"/>
<path d="" fill="#3FE6E3" transform="translate(0,0)"/>
<path d="" fill="#03487D" transform="translate(0,0)"/>
<path d="" fill="#2BCAD9" transform="translate(0,0)"/>
<path d="" fill="#022859" transform="translate(0,0)"/>
<path d="" fill="#3EE8E2" transform="translate(0,0)"/>
<path d="" fill="#3DE6E1" transform="translate(0,0)"/>
<path d="" fill="#30CEDE" transform="translate(0,0)"/>
<path d="" fill="#3EE7E3" transform="translate(0,0)"/>
<path d="" fill="#00427A" transform="translate(0,0)"/>
<path d="" fill="#064A7F" transform="translate(0,0)"/>
<path d="" fill="#03487E" transform="translate(0,0)"/>
<path d="" fill="#01275A" transform="translate(0,0)"/>
<path d="" fill="#2DD2DF" transform="translate(0,0)"/>
<path d="" fill="#1686AE" transform="translate(0,0)"/>
<path d="" fill="#1888B1" transform="translate(0,0)"/>
<path d="" fill="#118FB2" transform="translate(0,0)"/>
<path d="" fill="#138CB2" transform="translate(0,0)"/>
<path d="" fill="#034479" transform="translate(0,0)"/>
<path d="" fill="#00477C" transform="translate(0,0)"/>
<path d="" fill="#2FCFDF" transform="translate(0,0)"/>
<path d="" fill="#004078" transform="translate(0,0)"/>
<path d="" fill="#00356D" transform="translate(0,0)"/>
<path d="" fill="#00447B" transform="translate(0,0)"/>
<path d="" fill="#38E1DF" transform="translate(0,0)"/>
<path d="" fill="#003A71" transform="translate(0,0)"/>
<path d="" fill="#30D6DF" transform="translate(0,0)"/>
<path d="" fill="#1C96B5" transform="translate(0,0)"/>
<path d="" fill="#01457A" transform="translate(0,0)"/>
<path d="" fill="#01437A" transform="translate(0,0)"/>
<path d="" fill="#01447A" transform="translate(0,0)"/>
<path d="" fill="#02487B" transform="translate(0,0)"/>
<path d="" fill="#014478" transform="translate(0,0)"/>
<path d="" fill="#38DFDE" transform="translate(0,0)"/>
<path d="" fill="#034175" transform="translate(0,0)"/>
<path d="" fill="#34E0DC" transform="translate(0,0)"/>
<path d="" fill="#31D0DB" transform="translate(0,0)"/>
<path d="" fill="#36D9D9" transform="translate(0,0)"/>
<path d="" fill="#35D3D8" transform="translate(0,0)"/>
<path d="" fill="#30CDD9" transform="translate(0,0)"/>
<path d="" fill="#2DCDDB" transform="translate(0,0)"/>
<path d="" fill="#31D0D4" transform="translate(0,0)"/>
<path d="" fill="#2CCAD7" transform="translate(0,0)"/>
<path d="" fill="#36D4D5" transform="translate(0,0)"/>
<path d="" fill="#1791B4" transform="translate(0,0)"/>
<path d="" fill="#32C9D7" transform="translate(0,0)"/>
<path d="" fill="#32CFD5" transform="translate(0,0)"/>
<path d="" fill="#2FC9D6" transform="translate(0,0)"/>
<path d="" fill="#33CDD1" transform="translate(0,0)"/>
<path d="" fill="#2DBECE" transform="translate(0,0)"/>
<path d="" fill="#2FC9D0" transform="translate(0,0)"/>
<path d="" fill="#31C8CE" transform="translate(0,0)"/>
<path d="" fill="#198BAB" transform="translate(0,0)"/>
<path d="" fill="#29B2C3" transform="translate(0,0)"/>
<path d="" fill="#1485AA" transform="translate(0,0)"/>
<path d="" fill="#2AAABB" transform="translate(0,0)"/>
<path d="" fill="#1081AA" transform="translate(0,0)"/>
<path d="" fill="#044A79" transform="translate(0,0)"/>
<path d="" fill="#0F739A" transform="translate(0,0)"/>
<path d="" fill="#086997" transform="translate(0,0)"/>
<path d="" fill="#095E8B" transform="translate(0,0)"/>
<path d="" fill="#075F8A" transform="translate(0,0)"/>
</svg>
